<?xml version="1.0" encoding="UTF-8" standalone="no"?>
<svg width="297.039mm" height="209.903mm"
 viewBox="0 0 842 595"
 xmlns="http://www.w3.org/2000/svg" xmlns:xlink="http://www.w3.org/1999/xlink"  version="1.2" baseProfile="tiny">
<title>Qt SVG Document</title>
<desc>Generated with Qt</desc>
<defs>
</defs>
<g fill="none" stroke="black" stroke-width="1" fill-rule="evenodd" stroke-linecap="square" stroke-linejoin="bevel" >

<g fill="#000000" fill-opacity="1" stroke="none" transform="matrix(1,0,0,1,0,0)"
font-family="Ubuntu" font-size="11" font-weight="400" font-style="normal" 
>
<rect x="0" y="0" width="842" height="595"/>
</g>

<g fill="#c0c0c0" fill-opacity="1" stroke="#c0c0c0" stroke-opacity="1" stroke-width="1" stroke-linecap="square" stroke-linejoin="bevel" transform="matrix(1,0,0,1,0,0)"
font-family="Ubuntu" font-size="11" font-weight="400" font-style="normal" 
>
<polyline fill="none" vector-effect="none" points="126.299,505.756 799.883,505.756 " />
<polyline fill="none" vector-effect="none" points="126.299,505.756 126.299,494.989 " />
<polyline fill="none" vector-effect="none" points="153.229,505.756 153.229,500.359 " />
<polyline fill="none" vector-effect="none" points="180.184,505.756 180.184,500.359 " />
<polyline fill="none" vector-effect="none" points="207.114,505.756 207.114,500.359 " />
<polyline fill="none" vector-effect="none" points="234.07,505.756 234.07,500.359 " />
<polyline fill="none" vector-effect="none" points="261,505.756 261,494.989 " />
<polyline fill="none" vector-effect="none" points="287.956,505.756 287.956,500.359 " />
<polyline fill="none" vector-effect="none" points="314.886,505.756 314.886,500.359 " />
<polyline fill="none" vector-effect="none" points="341.842,505.756 341.842,500.359 " />
<polyline fill="none" vector-effect="none" points="368.772,505.756 368.772,500.359 " />
<polyline fill="none" vector-effect="none" points="395.727,505.756 395.727,494.989 " />
<polyline fill="none" vector-effect="none" points="422.657,505.756 422.657,500.359 " />
<polyline fill="none" vector-effect="none" points="449.613,505.756 449.613,500.359 " />
<polyline fill="none" vector-effect="none" points="476.543,505.756 476.543,500.359 " />
<polyline fill="none" vector-effect="none" points="503.499,505.756 503.499,500.359 " />
<polyline fill="none" vector-effect="none" points="530.429,505.756 530.429,494.989 " />
<polyline fill="none" vector-effect="none" points="557.385,505.756 557.385,500.359 " />
<polyline fill="none" vector-effect="none" points="584.315,505.756 584.315,500.359 " />
<polyline fill="none" vector-effect="none" points="611.27,505.756 611.27,500.359 " />
<polyline fill="none" vector-effect="none" points="638.2,505.756 638.2,500.359 " />
<polyline fill="none" vector-effect="none" points="665.156,505.756 665.156,494.989 " />
<polyline fill="none" vector-effect="none" points="692.086,505.756 692.086,500.359 " />
<polyline fill="none" vector-effect="none" points="719.042,505.756 719.042,500.359 " />
<polyline fill="none" vector-effect="none" points="745.972,505.756 745.972,500.359 " />
<polyline fill="none" vector-effect="none" points="772.928,505.756 772.928,500.359 " />
<polyline fill="none" vector-effect="none" points="799.858,505.756 799.858,494.989 " />
<polyline fill="none" vector-effect="none" points="799.883,505.756 799.883,59.5089 " />
<polyline fill="none" vector-effect="none" points="789.116,505.756 799.883,505.756 " />
<polyline fill="none" vector-effect="none" points="794.487,479.597 799.883,479.597 " />
<polyline fill="none" vector-effect="none" points="794.487,453.412 799.883,453.412 " />
<polyline fill="none" vector-effect="none" points="794.487,427.253 799.883,427.253 " />
<polyline fill="none" vector-effect="none" points="794.487,401.068 799.883,401.068 " />
<polyline fill="none" vector-effect="none" points="789.116,374.909 799.883,374.909 " />
<polyline fill="none" vector-effect="none" points="794.487,348.724 799.883,348.724 " />
<polyline fill="none" vector-effect="none" points="794.487,322.565 799.883,322.565 " />
<polyline fill="none" vector-effect="none" points="794.487,296.38 799.883,296.38 " />
<polyline fill="none" vector-effect="none" points="794.487,270.221 799.883,270.221 " />
<polyline fill="none" vector-effect="none" points="789.116,244.036 799.883,244.036 " />
<polyline fill="none" vector-effect="none" points="794.487,217.877 799.883,217.877 " />
<polyline fill="none" vector-effect="none" points="794.487,191.692 799.883,191.692 " />
<polyline fill="none" vector-effect="none" points="794.487,165.533 799.883,165.533 " />
<polyline fill="none" vector-effect="none" points="794.487,139.348 799.883,139.348 " />
<polyline fill="none" vector-effect="none" points="789.116,113.189 799.883,113.189 " />
<polyline fill="none" vector-effect="none" points="794.487,87.0042 799.883,87.0042 " />
<polyline fill="none" vector-effect="none" points="794.487,60.8451 799.883,60.8451 " />
<polyline fill="none" vector-effect="none" points="799.883,59.5089 126.299,59.5089 " />
<polyline fill="none" vector-effect="none" points="799.858,70.2757 799.858,59.5089 " />
<polyline fill="none" vector-effect="none" points="772.928,64.9051 772.928,59.5089 " />
<polyline fill="none" vector-effect="none" points="745.972,64.9051 745.972,59.5089 " />
<polyline fill="none" vector-effect="none" points="719.042,64.9051 719.042,59.5089 " />
<polyline fill="none" vector-effect="none" points="692.086,64.9051 692.086,59.5089 " />
<polyline fill="none" vector-effect="none" points="665.156,70.2757 665.156,59.5089 " />
<polyline fill="none" vector-effect="none" points="638.2,64.9051 638.2,59.5089 " />
<polyline fill="none" vector-effect="none" points="611.27,64.9051 611.27,59.5089 " />
<polyline fill="none" vector-effect="none" points="584.315,64.9051 584.315,59.5089 " />
<polyline fill="none" vector-effect="none" points="557.385,64.9051 557.385,59.5089 " />
<polyline fill="none" vector-effect="none" points="530.429,70.2757 530.429,59.5089 " />
<polyline fill="none" vector-effect="none" points="503.499,64.9051 503.499,59.5089 " />
<polyline fill="none" vector-effect="none" points="476.543,64.9051 476.543,59.5089 " />
<polyline fill="none" vector-effect="none" points="449.613,64.9051 449.613,59.5089 " />
<polyline fill="none" vector-effect="none" points="422.657,64.9051 422.657,59.5089 " />
<polyline fill="none" vector-effect="none" points="395.727,70.2757 395.727,59.5089 " />
<polyline fill="none" vector-effect="none" points="368.772,64.9051 368.772,59.5089 " />
<polyline fill="none" vector-effect="none" points="341.842,64.9051 341.842,59.5089 " />
<polyline fill="none" vector-effect="none" points="314.886,64.9051 314.886,59.5089 " />
<polyline fill="none" vector-effect="none" points="287.956,64.9051 287.956,59.5089 " />
<polyline fill="none" vector-effect="none" points="261,70.2757 261,59.5089 " />
<polyline fill="none" vector-effect="none" points="234.07,64.9051 234.07,59.5089 " />
<polyline fill="none" vector-effect="none" points="207.114,64.9051 207.114,59.5089 " />
<polyline fill="none" vector-effect="none" points="180.184,64.9051 180.184,59.5089 " />
<polyline fill="none" vector-effect="none" points="153.229,64.9051 153.229,59.5089 " />
<polyline fill="none" vector-effect="none" points="126.299,70.2757 126.299,59.5089 " />
<polyline fill="none" vector-effect="none" points="126.299,59.5089 126.299,505.756 " />
<polyline fill="none" vector-effect="none" points="126.299,60.8451 131.695,60.8451 " />
<polyline fill="none" vector-effect="none" points="126.299,87.0042 131.695,87.0042 " />
<polyline fill="none" vector-effect="none" points="126.299,113.189 137.066,113.189 " />
<polyline fill="none" vector-effect="none" points="126.299,139.348 131.695,139.348 " />
<polyline fill="none" vector-effect="none" points="126.299,165.533 131.695,165.533 " />
<polyline fill="none" vector-effect="none" points="126.299,191.692 131.695,191.692 " />
<polyline fill="none" vector-effect="none" points="126.299,217.877 131.695,217.877 " />
<polyline fill="none" vector-effect="none" points="126.299,244.036 137.066,244.036 " />
<polyline fill="none" vector-effect="none" points="126.299,270.221 131.695,270.221 " />
<polyline fill="none" vector-effect="none" points="126.299,296.38 131.695,296.38 " />
<polyline fill="none" vector-effect="none" points="126.299,322.565 131.695,322.565 " />
<polyline fill="none" vector-effect="none" points="126.299,348.724 131.695,348.724 " />
<polyline fill="none" vector-effect="none" points="126.299,374.909 137.066,374.909 " />
<polyline fill="none" vector-effect="none" points="126.299,401.068 131.695,401.068 " />
<polyline fill="none" vector-effect="none" points="126.299,427.253 131.695,427.253 " />
<polyline fill="none" vector-effect="none" points="126.299,453.412 131.695,453.412 " />
<polyline fill="none" vector-effect="none" points="126.299,479.597 131.695,479.597 " />
<polyline fill="none" vector-effect="none" points="126.299,505.756 137.066,505.756 " />
<polyline fill="none" vector-effect="none" points="126.299,505.756 799.883,505.756 " />
<polyline fill="none" vector-effect="none" points="126.299,516.523 126.299,494.989 " />
<polyline fill="none" vector-effect="none" points="153.229,511.152 153.229,500.359 " />
<polyline fill="none" vector-effect="none" points="180.184,511.152 180.184,500.359 " />
<polyline fill="none" vector-effect="none" points="207.114,511.152 207.114,500.359 " />
<polyline fill="none" vector-effect="none" points="234.07,511.152 234.07,500.359 " />
<polyline fill="none" vector-effect="none" points="261,516.523 261,494.989 " />
<polyline fill="none" vector-effect="none" points="287.956,511.152 287.956,500.359 " />
<polyline fill="none" vector-effect="none" points="314.886,511.152 314.886,500.359 " />
<polyline fill="none" vector-effect="none" points="341.842,511.152 341.842,500.359 " />
<polyline fill="none" vector-effect="none" points="368.772,511.152 368.772,500.359 " />
<polyline fill="none" vector-effect="none" points="395.727,516.523 395.727,494.989 " />
<polyline fill="none" vector-effect="none" points="422.657,511.152 422.657,500.359 " />
<polyline fill="none" vector-effect="none" points="449.613,511.152 449.613,500.359 " />
<polyline fill="none" vector-effect="none" points="476.543,511.152 476.543,500.359 " />
<polyline fill="none" vector-effect="none" points="503.499,511.152 503.499,500.359 " />
<polyline fill="none" vector-effect="none" points="530.429,516.523 530.429,494.989 " />
<polyline fill="none" vector-effect="none" points="557.385,511.152 557.385,500.359 " />
<polyline fill="none" vector-effect="none" points="584.315,511.152 584.315,500.359 " />
<polyline fill="none" vector-effect="none" points="611.27,511.152 611.27,500.359 " />
<polyline fill="none" vector-effect="none" points="638.2,511.152 638.2,500.359 " />
<polyline fill="none" vector-effect="none" points="665.156,516.523 665.156,494.989 " />
<polyline fill="none" vector-effect="none" points="692.086,511.152 692.086,500.359 " />
<polyline fill="none" vector-effect="none" points="719.042,511.152 719.042,500.359 " />
<polyline fill="none" vector-effect="none" points="745.972,511.152 745.972,500.359 " />
<polyline fill="none" vector-effect="none" points="772.928,511.152 772.928,500.359 " />
<polyline fill="none" vector-effect="none" points="799.858,516.523 799.858,494.989 " />
<polyline fill="none" vector-effect="none" points="126.299,505.756 126.299,59.5089 " />
<polyline fill="none" vector-effect="none" points="115.532,505.756 137.066,505.756 " />
<polyline fill="none" vector-effect="none" points="120.902,479.597 131.695,479.597 " />
<polyline fill="none" vector-effect="none" points="120.902,453.412 131.695,453.412 " />
<polyline fill="none" vector-effect="none" points="120.902,427.253 131.695,427.253 " />
<polyline fill="none" vector-effect="none" points="120.902,401.068 131.695,401.068 " />
<polyline fill="none" vector-effect="none" points="115.532,374.909 137.066,374.909 " />
<polyline fill="none" vector-effect="none" points="120.902,348.724 131.695,348.724 " />
<polyline fill="none" vector-effect="none" points="120.902,322.565 131.695,322.565 " />
<polyline fill="none" vector-effect="none" points="120.902,296.38 131.695,296.38 " />
<polyline fill="none" vector-effect="none" points="120.902,270.221 131.695,270.221 " />
<polyline fill="none" vector-effect="none" points="115.532,244.036 137.066,244.036 " />
<polyline fill="none" vector-effect="none" points="120.902,217.877 131.695,217.877 " />
<polyline fill="none" vector-effect="none" points="120.902,191.692 131.695,191.692 " />
<polyline fill="none" vector-effect="none" points="120.902,165.533 131.695,165.533 " />
<polyline fill="none" vector-effect="none" points="120.902,139.348 131.695,139.348 " />
<polyline fill="none" vector-effect="none" points="115.532,113.189 137.066,113.189 " />
<polyline fill="none" vector-effect="none" points="120.902,87.0042 131.695,87.0042 " />
<polyline fill="none" vector-effect="none" points="120.902,60.8451 131.695,60.8451 " />
<polyline fill="none" vector-effect="none" points="261,505.756 261,59.5089 " />
<polyline fill="none" vector-effect="none" points="395.727,505.756 395.727,59.5089 " />
<polyline fill="none" vector-effect="none" points="530.429,505.756 530.429,59.5089 " />
<polyline fill="none" vector-effect="none" points="665.156,505.756 665.156,59.5089 " />
<polyline fill="none" vector-effect="none" points="126.299,374.909 799.883,374.909 " />
<polyline fill="none" vector-effect="none" points="126.299,244.036 799.883,244.036 " />
<polyline fill="none" vector-effect="none" points="126.299,113.189 799.883,113.189 " />
</g>

<g fill="#c0c0c0" fill-opacity="1" stroke="#c0c0c0" stroke-opacity="1" stroke-width="1" stroke-linecap="square" stroke-linejoin="bevel" transform="matrix(1,0,0,1,0,0)"
font-family="Ubuntu" font-size="11" font-weight="400" font-style="normal" 
>
</g>

<g fill="#c0c0c0" fill-opacity="1" stroke="#c0c0c0" stroke-opacity="1" stroke-width="1" stroke-linecap="square" stroke-linejoin="bevel" transform="matrix(1,0,0,1,120.293,527.315)"
font-family="Ubuntu" font-size="11" font-weight="400" font-style="normal" 
>
</g>

<g fill="#c0c0c0" fill-opacity="1" stroke="none" transform="matrix(0.75,0,0,0.75,126.293,527.315)"
font-family="bogusxxxxxxxxxxxxxxxxxxxxbogus" font-size="20.8358" font-weight="400" font-style="normal" 
>
<path vector-effect="none" fill-rule="evenodd" d="M6.64063,0.46875 C6.64063,2.625 6.41667,4.47135 5.96875,6.00781 C5.52083,7.54427 4.8125,8.72396 3.84375,9.54688 C2.875,10.3698 1.58854,10.7813 -0.015625,10.7813 C-2.27604,10.7813 -3.94271,9.86979 -5.01563,8.04688 C-6.08854,6.22396 -6.625,3.69792 -6.625,0.46875 C-6.625,-1.6875 -6.40625,-3.53125 -5.96875,-5.0625 C-5.53125,-6.59375 -4.82813,-7.76563 -3.85938,-8.57813 C-2.89063,-9.39063 -1.60938,-9.79688 -0.015625,-9.79688 C2.22396,-9.79688 3.89323,-8.89583 4.99219,-7.09375 C6.09115,-5.29167 6.64063,-2.77083 6.64063,0.46875 M-4.15625,0.46875 C-4.15625,3.21875 -3.84375,5.27604 -3.21875,6.64063 C-2.59375,8.00521 -1.52604,8.6875 -0.015625,8.6875 C1.47396,8.6875 2.54167,8.01042 3.1875,6.65625 C3.83333,5.30208 4.15625,3.23958 4.15625,0.46875 C4.15625,-2.25 3.83333,-4.29167 3.1875,-5.65625 C2.54167,-7.02083 1.47396,-7.70313 -0.015625,-7.70313 C-1.52604,-7.70313 -2.59375,-7.02083 -3.21875,-5.65625 C-3.84375,-4.29167 -4.15625,-2.25 -4.15625,0.46875 "/>
</g>

<g fill="#c0c0c0" fill-opacity="1" stroke="#c0c0c0" stroke-opacity="1" stroke-width="1" stroke-linecap="square" stroke-linejoin="bevel" transform="matrix(1,0,0,1,120.293,527.315)"
font-family="Ubuntu" font-size="11" font-weight="400" font-style="normal" 
>
</g>

<g fill="#c0c0c0" fill-opacity="1" stroke="#c0c0c0" stroke-opacity="1" stroke-width="1" stroke-linecap="square" stroke-linejoin="bevel" transform="matrix(1,0,0,1,0,0)"
font-family="Ubuntu" font-size="11" font-weight="400" font-style="normal" 
>
</g>

<g fill="#c0c0c0" fill-opacity="1" stroke="#c0c0c0" stroke-opacity="1" stroke-width="1" stroke-linecap="square" stroke-linejoin="bevel" transform="matrix(1,0,0,1,0,0)"
font-family="Ubuntu" font-size="11" font-weight="400" font-style="normal" 
>
</g>

<g fill="#c0c0c0" fill-opacity="1" stroke="#c0c0c0" stroke-opacity="1" stroke-width="1" stroke-linecap="square" stroke-linejoin="bevel" transform="matrix(1,0,0,1,0,0)"
font-family="Ubuntu" font-size="11" font-weight="400" font-style="normal" 
>
</g>

<g fill="#c0c0c0" fill-opacity="1" stroke="#c0c0c0" stroke-opacity="1" stroke-width="1" stroke-linecap="square" stroke-linejoin="bevel" transform="matrix(1,0,0,1,243.008,527.315)"
font-family="Ubuntu" font-size="11" font-weight="400" font-style="normal" 
>
</g>

<g fill="#c0c0c0" fill-opacity="1" stroke="none" transform="matrix(0.75,0,0,0.75,261.008,527.315)"
font-family="bogusxxxxxxxxxxxxxxxxxxxxbogus" font-size="20.8358" font-weight="400" font-style="normal" 
>
<path vector-effect="none" fill-rule="evenodd" d="M-14.0781,10.5 L-16.4844,10.5 L-16.4844,-3.46875 C-16.4844,-4.27083 -16.474,-4.91406 -16.4531,-5.39844 C-16.4323,-5.88281 -16.4063,-6.39063 -16.375,-6.92188 C-16.6667,-6.61979 -16.9349,-6.36719 -17.1797,-6.16406 C-17.4245,-5.96094 -17.7344,-5.69792 -18.1094,-5.375 L-20.2344,-3.64063 L-21.5313,-5.29688 L-16.125,-9.48438 L-14.0781,-9.48438 L-14.0781,10.5 M6.64063,0.46875 C6.64063,2.625 6.41667,4.47135 5.96875,6.00781 C5.52083,7.54427 4.8125,8.72396 3.84375,9.54688 C2.875,10.3698 1.58854,10.7813 -0.015625,10.7813 C-2.27604,10.7813 -3.94271,9.86979 -5.01563,8.04688 C-6.08854,6.22396 -6.625,3.69792 -6.625,0.46875 C-6.625,-1.6875 -6.40625,-3.53125 -5.96875,-5.0625 C-5.53125,-6.59375 -4.82813,-7.76563 -3.85938,-8.57813 C-2.89063,-9.39063 -1.60938,-9.79688 -0.015625,-9.79688 C2.22396,-9.79688 3.89323,-8.89583 4.99219,-7.09375 C6.09115,-5.29167 6.64063,-2.77083 6.64063,0.46875 M-4.15625,0.46875 C-4.15625,3.21875 -3.84375,5.27604 -3.21875,6.64063 C-2.59375,8.00521 -1.52604,8.6875 -0.015625,8.6875 C1.47396,8.6875 2.54167,8.01042 3.1875,6.65625 C3.83333,5.30208 4.15625,3.23958 4.15625,0.46875 C4.15625,-2.25 3.83333,-4.29167 3.1875,-5.65625 C2.54167,-7.02083 1.47396,-7.70313 -0.015625,-7.70313 C-1.52604,-7.70313 -2.59375,-7.02083 -3.21875,-5.65625 C-3.84375,-4.29167 -4.15625,-2.25 -4.15625,0.46875 M22.6563,0.46875 C22.6563,2.625 22.4323,4.47135 21.9844,6.00781 C21.5365,7.54427 20.8281,8.72396 19.8594,9.54688 C18.8906,10.3698 17.6042,10.7813 16,10.7813 C13.7396,10.7813 12.0729,9.86979 11,8.04688 C9.92708,6.22396 9.39063,3.69792 9.39063,0.46875 C9.39063,-1.6875 9.60938,-3.53125 10.0469,-5.0625 C10.4844,-6.59375 11.1875,-7.76563 12.1563,-8.57813 C13.125,-9.39063 14.4063,-9.79688 16,-9.79688 C18.2396,-9.79688 19.9089,-8.89583 21.0078,-7.09375 C22.1068,-5.29167 22.6563,-2.77083 22.6563,0.46875 M11.8594,0.46875 C11.8594,3.21875 12.1719,5.27604 12.7969,6.64063 C13.4219,8.00521 14.4896,8.6875 16,8.6875 C17.4896,8.6875 18.5573,8.01042 19.2031,6.65625 C19.849,5.30208 20.1719,3.23958 20.1719,0.46875 C20.1719,-2.25 19.849,-4.29167 19.2031,-5.65625 C18.5573,-7.02083 17.4896,-7.70313 16,-7.70313 C14.4896,-7.70313 13.4219,-7.02083 12.7969,-5.65625 C12.1719,-4.29167 11.8594,-2.25 11.8594,0.46875 "/>
</g>

<g fill="#c0c0c0" fill-opacity="1" stroke="#c0c0c0" stroke-opacity="1" stroke-width="1" stroke-linecap="square" stroke-linejoin="bevel" transform="matrix(1,0,0,1,243.008,527.315)"
font-family="Ubuntu" font-size="11" font-weight="400" font-style="normal" 
>
</g>

<g fill="#c0c0c0" fill-opacity="1" stroke="#c0c0c0" stroke-opacity="1" stroke-width="1" stroke-linecap="square" stroke-linejoin="bevel" transform="matrix(1,0,0,1,0,0)"
font-family="Ubuntu" font-size="11" font-weight="400" font-style="normal" 
>
</g>

<g fill="#c0c0c0" fill-opacity="1" stroke="#c0c0c0" stroke-opacity="1" stroke-width="1" stroke-linecap="square" stroke-linejoin="bevel" transform="matrix(1,0,0,1,0,0)"
font-family="Ubuntu" font-size="11" font-weight="400" font-style="normal" 
>
</g>

<g fill="#c0c0c0" fill-opacity="1" stroke="#c0c0c0" stroke-opacity="1" stroke-width="1" stroke-linecap="square" stroke-linejoin="bevel" transform="matrix(1,0,0,1,0,0)"
font-family="Ubuntu" font-size="11" font-weight="400" font-style="normal" 
>
</g>

<g fill="#c0c0c0" fill-opacity="1" stroke="#c0c0c0" stroke-opacity="1" stroke-width="1" stroke-linecap="square" stroke-linejoin="bevel" transform="matrix(1,0,0,1,377.71,527.315)"
font-family="Ubuntu" font-size="11" font-weight="400" font-style="normal" 
>
</g>

<g fill="#c0c0c0" fill-opacity="1" stroke="none" transform="matrix(0.75,0,0,0.75,395.71,527.315)"
font-family="bogusxxxxxxxxxxxxxxxxxxxxbogus" font-size="20.8358" font-weight="400" font-style="normal" 
>
<path vector-effect="none" fill-rule="evenodd" d="M-9.45313,10.5 L-22.6719,10.5 L-22.6719,8.45313 L-17.4375,3.15625 C-16.4271,2.15625 -15.5781,1.26302 -14.8906,0.476563 C-14.2031,-0.309896 -13.6797,-1.08073 -13.3203,-1.83594 C-12.9609,-2.59115 -12.7813,-3.41667 -12.7813,-4.3125 C-12.7813,-5.41667 -13.1094,-6.2526 -13.7656,-6.82031 C-14.4219,-7.38802 -15.2708,-7.67188 -16.3125,-7.67188 C-17.2813,-7.67188 -18.1354,-7.5026 -18.875,-7.16406 C-19.6146,-6.82552 -20.3646,-6.35938 -21.125,-5.76563 L-22.4531,-7.42188 C-21.6615,-8.07813 -20.7578,-8.63281 -19.7422,-9.08594 C-18.7266,-9.53906 -17.5833,-9.76563 -16.3125,-9.76563 C-14.4479,-9.76563 -12.974,-9.29427 -11.8906,-8.35156 C-10.8073,-7.40885 -10.2656,-6.10938 -10.2656,-4.45313 C-10.2656,-3.41146 -10.4818,-2.43229 -10.9141,-1.51563 C-11.3464,-0.598958 -11.9453,0.302083 -12.7109,1.1875 C-13.4766,2.07292 -14.3698,3.02083 -15.3906,4.03125 L-19.5625,8.14063 L-19.5625,8.26563 L-9.45313,8.26563 L-9.45313,10.5 M6.64063,0.46875 C6.64063,2.625 6.41667,4.47135 5.96875,6.00781 C5.52083,7.54427 4.8125,8.72396 3.84375,9.54688 C2.875,10.3698 1.58854,10.7813 -0.015625,10.7813 C-2.27604,10.7813 -3.94271,9.86979 -5.01563,8.04688 C-6.08854,6.22396 -6.625,3.69792 -6.625,0.46875 C-6.625,-1.6875 -6.40625,-3.53125 -5.96875,-5.0625 C-5.53125,-6.59375 -4.82813,-7.76563 -3.85938,-8.57813 C-2.89063,-9.39063 -1.60938,-9.79688 -0.015625,-9.79688 C2.22396,-9.79688 3.89323,-8.89583 4.99219,-7.09375 C6.09115,-5.29167 6.64063,-2.77083 6.64063,0.46875 M-4.15625,0.46875 C-4.15625,3.21875 -3.84375,5.27604 -3.21875,6.64063 C-2.59375,8.00521 -1.52604,8.6875 -0.015625,8.6875 C1.47396,8.6875 2.54167,8.01042 3.1875,6.65625 C3.83333,5.30208 4.15625,3.23958 4.15625,0.46875 C4.15625,-2.25 3.83333,-4.29167 3.1875,-5.65625 C2.54167,-7.02083 1.47396,-7.70313 -0.015625,-7.70313 C-1.52604,-7.70313 -2.59375,-7.02083 -3.21875,-5.65625 C-3.84375,-4.29167 -4.15625,-2.25 -4.15625,0.46875 M22.6563,0.46875 C22.6563,2.625 22.4323,4.47135 21.9844,6.00781 C21.5365,7.54427 20.8281,8.72396 19.8594,9.54688 C18.8906,10.3698 17.6042,10.7813 16,10.7813 C13.7396,10.7813 12.0729,9.86979 11,8.04688 C9.92708,6.22396 9.39063,3.69792 9.39063,0.46875 C9.39063,-1.6875 9.60938,-3.53125 10.0469,-5.0625 C10.4844,-6.59375 11.1875,-7.76563 12.1563,-8.57813 C13.125,-9.39063 14.4063,-9.79688 16,-9.79688 C18.2396,-9.79688 19.9089,-8.89583 21.0078,-7.09375 C22.1068,-5.29167 22.6563,-2.77083 22.6563,0.46875 M11.8594,0.46875 C11.8594,3.21875 12.1719,5.27604 12.7969,6.64063 C13.4219,8.00521 14.4896,8.6875 16,8.6875 C17.4896,8.6875 18.5573,8.01042 19.2031,6.65625 C19.849,5.30208 20.1719,3.23958 20.1719,0.46875 C20.1719,-2.25 19.849,-4.29167 19.2031,-5.65625 C18.5573,-7.02083 17.4896,-7.70313 16,-7.70313 C14.4896,-7.70313 13.4219,-7.02083 12.7969,-5.65625 C12.1719,-4.29167 11.8594,-2.25 11.8594,0.46875 "/>
</g>

<g fill="#c0c0c0" fill-opacity="1" stroke="#c0c0c0" stroke-opacity="1" stroke-width="1" stroke-linecap="square" stroke-linejoin="bevel" transform="matrix(1,0,0,1,377.71,527.315)"
font-family="Ubuntu" font-size="11" font-weight="400" font-style="normal" 
>
</g>

<g fill="#c0c0c0" fill-opacity="1" stroke="#c0c0c0" stroke-opacity="1" stroke-width="1" stroke-linecap="square" stroke-linejoin="bevel" transform="matrix(1,0,0,1,0,0)"
font-family="Ubuntu" font-size="11" font-weight="400" font-style="normal" 
>
</g>

<g fill="#c0c0c0" fill-opacity="1" stroke="#c0c0c0" stroke-opacity="1" stroke-width="1" stroke-linecap="square" stroke-linejoin="bevel" transform="matrix(1,0,0,1,0,0)"
font-family="Ubuntu" font-size="11" font-weight="400" font-style="normal" 
>
</g>

<g fill="#c0c0c0" fill-opacity="1" stroke="#c0c0c0" stroke-opacity="1" stroke-width="1" stroke-linecap="square" stroke-linejoin="bevel" transform="matrix(1,0,0,1,0,0)"
font-family="Ubuntu" font-size="11" font-weight="400" font-style="normal" 
>
</g>

<g fill="#c0c0c0" fill-opacity="1" stroke="#c0c0c0" stroke-opacity="1" stroke-width="1" stroke-linecap="square" stroke-linejoin="bevel" transform="matrix(1,0,0,1,512.437,527.315)"
font-family="Ubuntu" font-size="11" font-weight="400" font-style="normal" 
>
</g>

<g fill="#c0c0c0" fill-opacity="1" stroke="none" transform="matrix(0.75,0,0,0.75,530.437,527.315)"
font-family="bogusxxxxxxxxxxxxxxxxxxxxbogus" font-size="20.8358" font-weight="400" font-style="normal" 
>
<path vector-effect="none" fill-rule="evenodd" d="M-10.2188,-4.8125 C-10.2188,-3.46875 -10.5911,-2.40104 -11.3359,-1.60938 C-12.0807,-0.817708 -13.0885,-0.291667 -14.3594,-0.03125 L-14.3594,0.078125 C-12.7552,0.265625 -11.5599,0.770833 -10.7734,1.59375 C-9.98698,2.41667 -9.59375,3.48958 -9.59375,4.8125 C-9.59375,5.96875 -9.86458,7 -10.4063,7.90625 C-10.9479,8.8125 -11.7839,9.51823 -12.9141,10.0234 C-14.0443,10.5286 -15.4948,10.7813 -17.2656,10.7813 C-18.3073,10.7813 -19.2786,10.7005 -20.1797,10.5391 C-21.0807,10.3776 -21.9375,10.0938 -22.75,9.6875 L-22.75,7.39063 C-21.9167,7.80729 -21.013,8.13021 -20.0391,8.35938 C-19.0651,8.58854 -18.1302,8.70313 -17.2344,8.70313 C-15.4427,8.70313 -14.151,8.35417 -13.3594,7.65625 C-12.5677,6.95833 -12.1719,5.99479 -12.1719,4.76563 C-12.1719,3.51563 -12.6615,2.61458 -13.6406,2.0625 C-14.6198,1.51042 -15.9948,1.23438 -17.7656,1.23438 L-19.7031,1.23438 L-19.7031,-0.875 L-17.75,-0.875 C-16.1042,-0.875 -14.8568,-1.21875 -14.0078,-1.90625 C-13.1589,-2.59375 -12.7344,-3.50521 -12.7344,-4.64063 C-12.7344,-5.61979 -13.0599,-6.375 -13.7109,-6.90625 C-14.362,-7.4375 -15.25,-7.70313 -16.375,-7.70313 C-17.4583,-7.70313 -18.3828,-7.54427 -19.1484,-7.22656 C-19.9141,-6.90885 -20.6667,-6.50521 -21.4063,-6.01563 L-22.6406,-7.70313 C-21.9323,-8.26563 -21.0521,-8.75 -20,-9.15625 C-18.9479,-9.5625 -17.75,-9.76563 -16.4063,-9.76563 C-14.3125,-9.76563 -12.7578,-9.29948 -11.7422,-8.36719 C-10.7266,-7.4349 -10.2188,-6.25 -10.2188,-4.8125 M6.64063,0.46875 C6.64063,2.625 6.41667,4.47135 5.96875,6.00781 C5.52083,7.54427 4.8125,8.72396 3.84375,9.54688 C2.875,10.3698 1.58854,10.7813 -0.015625,10.7813 C-2.27604,10.7813 -3.94271,9.86979 -5.01563,8.04688 C-6.08854,6.22396 -6.625,3.69792 -6.625,0.46875 C-6.625,-1.6875 -6.40625,-3.53125 -5.96875,-5.0625 C-5.53125,-6.59375 -4.82813,-7.76563 -3.85938,-8.57813 C-2.89063,-9.39063 -1.60938,-9.79688 -0.015625,-9.79688 C2.22396,-9.79688 3.89323,-8.89583 4.99219,-7.09375 C6.09115,-5.29167 6.64063,-2.77083 6.64063,0.46875 M-4.15625,0.46875 C-4.15625,3.21875 -3.84375,5.27604 -3.21875,6.64063 C-2.59375,8.00521 -1.52604,8.6875 -0.015625,8.6875 C1.47396,8.6875 2.54167,8.01042 3.1875,6.65625 C3.83333,5.30208 4.15625,3.23958 4.15625,0.46875 C4.15625,-2.25 3.83333,-4.29167 3.1875,-5.65625 C2.54167,-7.02083 1.47396,-7.70313 -0.015625,-7.70313 C-1.52604,-7.70313 -2.59375,-7.02083 -3.21875,-5.65625 C-3.84375,-4.29167 -4.15625,-2.25 -4.15625,0.46875 M22.6563,0.46875 C22.6563,2.625 22.4323,4.47135 21.9844,6.00781 C21.5365,7.54427 20.8281,8.72396 19.8594,9.54688 C18.8906,10.3698 17.6042,10.7813 16,10.7813 C13.7396,10.7813 12.0729,9.86979 11,8.04688 C9.92708,6.22396 9.39063,3.69792 9.39063,0.46875 C9.39063,-1.6875 9.60938,-3.53125 10.0469,-5.0625 C10.4844,-6.59375 11.1875,-7.76563 12.1563,-8.57813 C13.125,-9.39063 14.4063,-9.79688 16,-9.79688 C18.2396,-9.79688 19.9089,-8.89583 21.0078,-7.09375 C22.1068,-5.29167 22.6563,-2.77083 22.6563,0.46875 M11.8594,0.46875 C11.8594,3.21875 12.1719,5.27604 12.7969,6.64063 C13.4219,8.00521 14.4896,8.6875 16,8.6875 C17.4896,8.6875 18.5573,8.01042 19.2031,6.65625 C19.849,5.30208 20.1719,3.23958 20.1719,0.46875 C20.1719,-2.25 19.849,-4.29167 19.2031,-5.65625 C18.5573,-7.02083 17.4896,-7.70313 16,-7.70313 C14.4896,-7.70313 13.4219,-7.02083 12.7969,-5.65625 C12.1719,-4.29167 11.8594,-2.25 11.8594,0.46875 "/>
</g>

<g fill="#c0c0c0" fill-opacity="1" stroke="#c0c0c0" stroke-opacity="1" stroke-width="1" stroke-linecap="square" stroke-linejoin="bevel" transform="matrix(1,0,0,1,512.437,527.315)"
font-family="Ubuntu" font-size="11" font-weight="400" font-style="normal" 
>
</g>

<g fill="#c0c0c0" fill-opacity="1" stroke="#c0c0c0" stroke-opacity="1" stroke-width="1" stroke-linecap="square" stroke-linejoin="bevel" transform="matrix(1,0,0,1,0,0)"
font-family="Ubuntu" font-size="11" font-weight="400" font-style="normal" 
>
</g>

<g fill="#c0c0c0" fill-opacity="1" stroke="#c0c0c0" stroke-opacity="1" stroke-width="1" stroke-linecap="square" stroke-linejoin="bevel" transform="matrix(1,0,0,1,0,0)"
font-family="Ubuntu" font-size="11" font-weight="400" font-style="normal" 
>
</g>

<g fill="#c0c0c0" fill-opacity="1" stroke="#c0c0c0" stroke-opacity="1" stroke-width="1" stroke-linecap="square" stroke-linejoin="bevel" transform="matrix(1,0,0,1,0,0)"
font-family="Ubuntu" font-size="11" font-weight="400" font-style="normal" 
>
</g>

<g fill="#c0c0c0" fill-opacity="1" stroke="#c0c0c0" stroke-opacity="1" stroke-width="1" stroke-linecap="square" stroke-linejoin="bevel" transform="matrix(1,0,0,1,647.139,527.315)"
font-family="Ubuntu" font-size="11" font-weight="400" font-style="normal" 
>
</g>

<g fill="#c0c0c0" fill-opacity="1" stroke="none" transform="matrix(0.75,0,0,0.75,665.139,527.315)"
font-family="bogusxxxxxxxxxxxxxxxxxxxxbogus" font-size="20.8358" font-weight="400" font-style="normal" 
>
<path vector-effect="none" fill-rule="evenodd" d="M-8.5625,5.96875 L-11.4688,5.96875 L-11.4688,10.5 L-13.8594,10.5 L-13.8594,5.96875 L-23.4219,5.96875 L-23.4219,3.85938 L-14.0156,-9.60938 L-11.4688,-9.60938 L-11.4688,3.75 L-8.5625,3.75 L-8.5625,5.96875 M-13.8594,-2.54688 C-13.8594,-3.51563 -13.8385,-4.34115 -13.7969,-5.02344 C-13.7552,-5.70573 -13.7292,-6.35417 -13.7188,-6.96875 L-13.8281,-6.96875 C-13.974,-6.61458 -14.1589,-6.23177 -14.3828,-5.82031 C-14.6068,-5.40885 -14.8229,-5.0625 -15.0313,-4.78125 L-21.0156,3.75 L-13.8594,3.75 L-13.8594,-2.54688 M6.64063,0.46875 C6.64063,2.625 6.41667,4.47135 5.96875,6.00781 C5.52083,7.54427 4.8125,8.72396 3.84375,9.54688 C2.875,10.3698 1.58854,10.7813 -0.015625,10.7813 C-2.27604,10.7813 -3.94271,9.86979 -5.01563,8.04688 C-6.08854,6.22396 -6.625,3.69792 -6.625,0.46875 C-6.625,-1.6875 -6.40625,-3.53125 -5.96875,-5.0625 C-5.53125,-6.59375 -4.82813,-7.76563 -3.85938,-8.57813 C-2.89063,-9.39063 -1.60938,-9.79688 -0.015625,-9.79688 C2.22396,-9.79688 3.89323,-8.89583 4.99219,-7.09375 C6.09115,-5.29167 6.64063,-2.77083 6.64063,0.46875 M-4.15625,0.46875 C-4.15625,3.21875 -3.84375,5.27604 -3.21875,6.64063 C-2.59375,8.00521 -1.52604,8.6875 -0.015625,8.6875 C1.47396,8.6875 2.54167,8.01042 3.1875,6.65625 C3.83333,5.30208 4.15625,3.23958 4.15625,0.46875 C4.15625,-2.25 3.83333,-4.29167 3.1875,-5.65625 C2.54167,-7.02083 1.47396,-7.70313 -0.015625,-7.70313 C-1.52604,-7.70313 -2.59375,-7.02083 -3.21875,-5.65625 C-3.84375,-4.29167 -4.15625,-2.25 -4.15625,0.46875 M22.6563,0.46875 C22.6563,2.625 22.4323,4.47135 21.9844,6.00781 C21.5365,7.54427 20.8281,8.72396 19.8594,9.54688 C18.8906,10.3698 17.6042,10.7813 16,10.7813 C13.7396,10.7813 12.0729,9.86979 11,8.04688 C9.92708,6.22396 9.39063,3.69792 9.39063,0.46875 C9.39063,-1.6875 9.60938,-3.53125 10.0469,-5.0625 C10.4844,-6.59375 11.1875,-7.76563 12.1563,-8.57813 C13.125,-9.39063 14.4063,-9.79688 16,-9.79688 C18.2396,-9.79688 19.9089,-8.89583 21.0078,-7.09375 C22.1068,-5.29167 22.6563,-2.77083 22.6563,0.46875 M11.8594,0.46875 C11.8594,3.21875 12.1719,5.27604 12.7969,6.64063 C13.4219,8.00521 14.4896,8.6875 16,8.6875 C17.4896,8.6875 18.5573,8.01042 19.2031,6.65625 C19.849,5.30208 20.1719,3.23958 20.1719,0.46875 C20.1719,-2.25 19.849,-4.29167 19.2031,-5.65625 C18.5573,-7.02083 17.4896,-7.70313 16,-7.70313 C14.4896,-7.70313 13.4219,-7.02083 12.7969,-5.65625 C12.1719,-4.29167 11.8594,-2.25 11.8594,0.46875 "/>
</g>

<g fill="#c0c0c0" fill-opacity="1" stroke="#c0c0c0" stroke-opacity="1" stroke-width="1" stroke-linecap="square" stroke-linejoin="bevel" transform="matrix(1,0,0,1,647.139,527.315)"
font-family="Ubuntu" font-size="11" font-weight="400" font-style="normal" 
>
</g>

<g fill="#c0c0c0" fill-opacity="1" stroke="#c0c0c0" stroke-opacity="1" stroke-width="1" stroke-linecap="square" stroke-linejoin="bevel" transform="matrix(1,0,0,1,0,0)"
font-family="Ubuntu" font-size="11" font-weight="400" font-style="normal" 
>
</g>

<g fill="#c0c0c0" fill-opacity="1" stroke="#c0c0c0" stroke-opacity="1" stroke-width="1" stroke-linecap="square" stroke-linejoin="bevel" transform="matrix(1,0,0,1,0,0)"
font-family="Ubuntu" font-size="11" font-weight="400" font-style="normal" 
>
</g>

<g fill="#c0c0c0" fill-opacity="1" stroke="#c0c0c0" stroke-opacity="1" stroke-width="1" stroke-linecap="square" stroke-linejoin="bevel" transform="matrix(1,0,0,1,0,0)"
font-family="Ubuntu" font-size="11" font-weight="400" font-style="normal" 
>
</g>

<g fill="#c0c0c0" fill-opacity="1" stroke="#c0c0c0" stroke-opacity="1" stroke-width="1" stroke-linecap="square" stroke-linejoin="bevel" transform="matrix(1,0,0,1,781.84,527.315)"
font-family="Ubuntu" font-size="11" font-weight="400" font-style="normal" 
>
</g>

<g fill="#c0c0c0" fill-opacity="1" stroke="none" transform="matrix(0.75,0,0,0.75,799.84,527.315)"
font-family="bogusxxxxxxxxxxxxxxxxxxxxbogus" font-size="20.8358" font-weight="400" font-style="normal" 
>
<path vector-effect="none" fill-rule="evenodd" d="M-16.3125,-1.76563 C-14.2604,-1.76563 -12.6276,-1.2526 -11.4141,-0.226563 C-10.2005,0.799479 -9.59375,2.24479 -9.59375,4.10938 C-9.59375,6.18229 -10.2526,7.8125 -11.5703,9 C-12.888,10.1875 -14.724,10.7813 -17.0781,10.7813 C-18.099,10.7813 -19.0625,10.6875 -19.9688,10.5 C-20.875,10.3125 -21.6354,10.0417 -22.25,9.6875 L-22.25,7.35938 C-21.5833,7.77604 -20.7682,8.10156 -19.8047,8.33594 C-18.8411,8.57031 -17.9219,8.6875 -17.0469,8.6875 C-15.5677,8.6875 -14.375,8.33594 -13.4688,7.63281 C-12.5625,6.92969 -12.1094,5.84375 -12.1094,4.375 C-12.1094,3.0625 -12.513,2.05729 -13.3203,1.35938 C-14.1276,0.661458 -15.3958,0.3125 -17.125,0.3125 C-17.6458,0.3125 -18.2422,0.359375 -18.9141,0.453125 C-19.5859,0.546875 -20.1302,0.640625 -20.5469,0.734375 L-21.7813,-0.0625 L-21.0156,-9.48438 L-11,-9.48438 L-11,-7.25 L-18.9219,-7.25 L-19.3906,-1.45313 C-19.0781,-1.51563 -18.651,-1.58333 -18.1094,-1.65625 C-17.5677,-1.72917 -16.9688,-1.76563 -16.3125,-1.76563 M6.64063,0.46875 C6.64063,2.625 6.41667,4.47135 5.96875,6.00781 C5.52083,7.54427 4.8125,8.72396 3.84375,9.54688 C2.875,10.3698 1.58854,10.7813 -0.015625,10.7813 C-2.27604,10.7813 -3.94271,9.86979 -5.01563,8.04688 C-6.08854,6.22396 -6.625,3.69792 -6.625,0.46875 C-6.625,-1.6875 -6.40625,-3.53125 -5.96875,-5.0625 C-5.53125,-6.59375 -4.82813,-7.76563 -3.85938,-8.57813 C-2.89063,-9.39063 -1.60938,-9.79688 -0.015625,-9.79688 C2.22396,-9.79688 3.89323,-8.89583 4.99219,-7.09375 C6.09115,-5.29167 6.64063,-2.77083 6.64063,0.46875 M-4.15625,0.46875 C-4.15625,3.21875 -3.84375,5.27604 -3.21875,6.64063 C-2.59375,8.00521 -1.52604,8.6875 -0.015625,8.6875 C1.47396,8.6875 2.54167,8.01042 3.1875,6.65625 C3.83333,5.30208 4.15625,3.23958 4.15625,0.46875 C4.15625,-2.25 3.83333,-4.29167 3.1875,-5.65625 C2.54167,-7.02083 1.47396,-7.70313 -0.015625,-7.70313 C-1.52604,-7.70313 -2.59375,-7.02083 -3.21875,-5.65625 C-3.84375,-4.29167 -4.15625,-2.25 -4.15625,0.46875 M22.6563,0.46875 C22.6563,2.625 22.4323,4.47135 21.9844,6.00781 C21.5365,7.54427 20.8281,8.72396 19.8594,9.54688 C18.8906,10.3698 17.6042,10.7813 16,10.7813 C13.7396,10.7813 12.0729,9.86979 11,8.04688 C9.92708,6.22396 9.39063,3.69792 9.39063,0.46875 C9.39063,-1.6875 9.60938,-3.53125 10.0469,-5.0625 C10.4844,-6.59375 11.1875,-7.76563 12.1563,-8.57813 C13.125,-9.39063 14.4063,-9.79688 16,-9.79688 C18.2396,-9.79688 19.9089,-8.89583 21.0078,-7.09375 C22.1068,-5.29167 22.6563,-2.77083 22.6563,0.46875 M11.8594,0.46875 C11.8594,3.21875 12.1719,5.27604 12.7969,6.64063 C13.4219,8.00521 14.4896,8.6875 16,8.6875 C17.4896,8.6875 18.5573,8.01042 19.2031,6.65625 C19.849,5.30208 20.1719,3.23958 20.1719,0.46875 C20.1719,-2.25 19.849,-4.29167 19.2031,-5.65625 C18.5573,-7.02083 17.4896,-7.70313 16,-7.70313 C14.4896,-7.70313 13.4219,-7.02083 12.7969,-5.65625 C12.1719,-4.29167 11.8594,-2.25 11.8594,0.46875 "/>
</g>

<g fill="#c0c0c0" fill-opacity="1" stroke="#c0c0c0" stroke-opacity="1" stroke-width="1" stroke-linecap="square" stroke-linejoin="bevel" transform="matrix(1,0,0,1,781.84,527.315)"
font-family="Ubuntu" font-size="11" font-weight="400" font-style="normal" 
>
</g>

<g fill="#c0c0c0" fill-opacity="1" stroke="#c0c0c0" stroke-opacity="1" stroke-width="1" stroke-linecap="square" stroke-linejoin="bevel" transform="matrix(1,0,0,1,0,0)"
font-family="Ubuntu" font-size="11" font-weight="400" font-style="normal" 
>
</g>

<g fill="#c0c0c0" fill-opacity="1" stroke="#c0c0c0" stroke-opacity="1" stroke-width="1" stroke-linecap="square" stroke-linejoin="bevel" transform="matrix(1,0,0,1,0,0)"
font-family="Ubuntu" font-size="11" font-weight="400" font-style="normal" 
>
</g>

<g fill="#c0c0c0" fill-opacity="1" stroke="#c0c0c0" stroke-opacity="1" stroke-width="1" stroke-linecap="square" stroke-linejoin="bevel" transform="matrix(1,0,0,1,0,0)"
font-family="Ubuntu" font-size="11" font-weight="400" font-style="normal" 
>
</g>

<g fill="#c0c0c0" fill-opacity="1" stroke="#c0c0c0" stroke-opacity="1" stroke-width="1" stroke-linecap="square" stroke-linejoin="bevel" transform="matrix(6.12323e-17,-1,1,6.12323e-17,104.739,520.58)"
font-family="Ubuntu" font-size="11" font-weight="400" font-style="normal" 
>
</g>

<g fill="#c0c0c0" fill-opacity="1" stroke="none" transform="matrix(4.59243e-17,-0.75,0.75,4.59243e-17,104.739,506.33)"
font-family="bogusxxxxxxxxxxxxxxxxxxxxbogus" font-size="20.8358" font-weight="400" font-style="normal" 
>
<path vector-effect="none" fill-rule="evenodd" d="M-5.125,0.46875 C-5.125,2.625 -5.34896,4.47135 -5.79688,6.00781 C-6.24479,7.54427 -6.95313,8.72396 -7.92188,9.54688 C-8.89063,10.3698 -10.1771,10.7813 -11.7813,10.7813 C-14.0417,10.7813 -15.7083,9.86979 -16.7813,8.04688 C-17.8542,6.22396 -18.3906,3.69792 -18.3906,0.46875 C-18.3906,-1.6875 -18.1719,-3.53125 -17.7344,-5.0625 C-17.2969,-6.59375 -16.5938,-7.76563 -15.625,-8.57813 C-14.6563,-9.39063 -13.375,-9.79688 -11.7813,-9.79688 C-9.54167,-9.79688 -7.8724,-8.89583 -6.77344,-7.09375 C-5.67448,-5.29167 -5.125,-2.77083 -5.125,0.46875 M-15.9219,0.46875 C-15.9219,3.21875 -15.6094,5.27604 -14.9844,6.64063 C-14.3594,8.00521 -13.2917,8.6875 -11.7813,8.6875 C-10.2917,8.6875 -9.22396,8.01042 -8.57813,6.65625 C-7.93229,5.30208 -7.60938,3.23958 -7.60938,0.46875 C-7.60938,-2.25 -7.93229,-4.29167 -8.57813,-5.65625 C-9.22396,-7.02083 -10.2917,-7.70313 -11.7813,-7.70313 C-13.2917,-7.70313 -14.3594,-7.02083 -14.9844,-5.65625 C-15.6094,-4.29167 -15.9219,-2.25 -15.9219,0.46875 M-1.73438,8.98438 C-1.73438,8.29688 -1.5651,7.8125 -1.22656,7.53125 C-0.888021,7.25 -0.489583,7.10938 -0.03125,7.10938 C0.458333,7.10938 0.875,7.25 1.21875,7.53125 C1.5625,7.8125 1.73438,8.29688 1.73438,8.98438 C1.73438,9.66146 1.5625,10.1484 1.21875,10.4453 C0.875,10.7422 0.458333,10.8906 -0.03125,10.8906 C-0.489583,10.8906 -0.888021,10.7422 -1.22656,10.4453 C-1.5651,10.1484 -1.73438,9.66146 -1.73438,8.98438 M18.3906,0.46875 C18.3906,2.625 18.1667,4.47135 17.7188,6.00781 C17.2708,7.54427 16.5625,8.72396 15.5938,9.54688 C14.625,10.3698 13.3385,10.7813 11.7344,10.7813 C9.47396,10.7813 7.80729,9.86979 6.73438,8.04688 C5.66146,6.22396 5.125,3.69792 5.125,0.46875 C5.125,-1.6875 5.34375,-3.53125 5.78125,-5.0625 C6.21875,-6.59375 6.92188,-7.76563 7.89063,-8.57813 C8.85938,-9.39063 10.1406,-9.79688 11.7344,-9.79688 C13.974,-9.79688 15.6432,-8.89583 16.7422,-7.09375 C17.8411,-5.29167 18.3906,-2.77083 18.3906,0.46875 M7.59375,0.46875 C7.59375,3.21875 7.90625,5.27604 8.53125,6.64063 C9.15625,8.00521 10.224,8.6875 11.7344,8.6875 C13.224,8.6875 14.2917,8.01042 14.9375,6.65625 C15.5833,5.30208 15.9063,3.23958 15.9063,0.46875 C15.9063,-2.25 15.5833,-4.29167 14.9375,-5.65625 C14.2917,-7.02083 13.224,-7.70313 11.7344,-7.70313 C10.224,-7.70313 9.15625,-7.02083 8.53125,-5.65625 C7.90625,-4.29167 7.59375,-2.25 7.59375,0.46875 "/>
</g>

<g fill="#c0c0c0" fill-opacity="1" stroke="#c0c0c0" stroke-opacity="1" stroke-width="1" stroke-linecap="square" stroke-linejoin="bevel" transform="matrix(6.12323e-17,-1,1,6.12323e-17,104.739,520.58)"
font-family="Ubuntu" font-size="11" font-weight="400" font-style="normal" 
>
</g>

<g fill="#c0c0c0" fill-opacity="1" stroke="#c0c0c0" stroke-opacity="1" stroke-width="1" stroke-linecap="square" stroke-linejoin="bevel" transform="matrix(1,0,0,1,0,0)"
font-family="Ubuntu" font-size="11" font-weight="400" font-style="normal" 
>
</g>

<g fill="#c0c0c0" fill-opacity="1" stroke="#c0c0c0" stroke-opacity="1" stroke-width="1" stroke-linecap="square" stroke-linejoin="bevel" transform="matrix(1,0,0,1,0,0)"
font-family="Ubuntu" font-size="11" font-weight="400" font-style="normal" 
>
</g>

<g fill="#c0c0c0" fill-opacity="1" stroke="#c0c0c0" stroke-opacity="1" stroke-width="1" stroke-linecap="square" stroke-linejoin="bevel" transform="matrix(1,0,0,1,0,0)"
font-family="Ubuntu" font-size="11" font-weight="400" font-style="normal" 
>
</g>

<g fill="#c0c0c0" fill-opacity="1" stroke="#c0c0c0" stroke-opacity="1" stroke-width="1" stroke-linecap="square" stroke-linejoin="bevel" transform="matrix(6.12323e-17,-1,1,6.12323e-17,104.739,389.707)"
font-family="Ubuntu" font-size="11" font-weight="400" font-style="normal" 
>
</g>

<g fill="#c0c0c0" fill-opacity="1" stroke="none" transform="matrix(4.59243e-17,-0.75,0.75,4.59243e-17,104.739,375.457)"
font-family="bogusxxxxxxxxxxxxxxxxxxxxbogus" font-size="20.8358" font-weight="400" font-style="normal" 
>
<path vector-effect="none" fill-rule="evenodd" d="M-5.125,0.46875 C-5.125,2.625 -5.34896,4.47135 -5.79688,6.00781 C-6.24479,7.54427 -6.95313,8.72396 -7.92188,9.54688 C-8.89063,10.3698 -10.1771,10.7813 -11.7813,10.7813 C-14.0417,10.7813 -15.7083,9.86979 -16.7813,8.04688 C-17.8542,6.22396 -18.3906,3.69792 -18.3906,0.46875 C-18.3906,-1.6875 -18.1719,-3.53125 -17.7344,-5.0625 C-17.2969,-6.59375 -16.5938,-7.76563 -15.625,-8.57813 C-14.6563,-9.39063 -13.375,-9.79688 -11.7813,-9.79688 C-9.54167,-9.79688 -7.8724,-8.89583 -6.77344,-7.09375 C-5.67448,-5.29167 -5.125,-2.77083 -5.125,0.46875 M-15.9219,0.46875 C-15.9219,3.21875 -15.6094,5.27604 -14.9844,6.64063 C-14.3594,8.00521 -13.2917,8.6875 -11.7813,8.6875 C-10.2917,8.6875 -9.22396,8.01042 -8.57813,6.65625 C-7.93229,5.30208 -7.60938,3.23958 -7.60938,0.46875 C-7.60938,-2.25 -7.93229,-4.29167 -8.57813,-5.65625 C-9.22396,-7.02083 -10.2917,-7.70313 -11.7813,-7.70313 C-13.2917,-7.70313 -14.3594,-7.02083 -14.9844,-5.65625 C-15.6094,-4.29167 -15.9219,-2.25 -15.9219,0.46875 M-1.73438,8.98438 C-1.73438,8.29688 -1.5651,7.8125 -1.22656,7.53125 C-0.888021,7.25 -0.489583,7.10938 -0.03125,7.10938 C0.458333,7.10938 0.875,7.25 1.21875,7.53125 C1.5625,7.8125 1.73438,8.29688 1.73438,8.98438 C1.73438,9.66146 1.5625,10.1484 1.21875,10.4453 C0.875,10.7422 0.458333,10.8906 -0.03125,10.8906 C-0.489583,10.8906 -0.888021,10.7422 -1.22656,10.4453 C-1.5651,10.1484 -1.73438,9.66146 -1.73438,8.98438 M11.4531,-1.76563 C13.5052,-1.76563 15.138,-1.2526 16.3516,-0.226563 C17.5651,0.799479 18.1719,2.24479 18.1719,4.10938 C18.1719,6.18229 17.513,7.8125 16.1953,9 C14.8776,10.1875 13.0417,10.7813 10.6875,10.7813 C9.66667,10.7813 8.70313,10.6875 7.79688,10.5 C6.89063,10.3125 6.13021,10.0417 5.51563,9.6875 L5.51563,7.35938 C6.18229,7.77604 6.9974,8.10156 7.96094,8.33594 C8.92448,8.57031 9.84375,8.6875 10.7188,8.6875 C12.1979,8.6875 13.3906,8.33594 14.2969,7.63281 C15.2031,6.92969 15.6563,5.84375 15.6563,4.375 C15.6563,3.0625 15.2526,2.05729 14.4453,1.35938 C13.638,0.661458 12.3698,0.3125 10.6406,0.3125 C10.1198,0.3125 9.52344,0.359375 8.85156,0.453125 C8.17969,0.546875 7.63542,0.640625 7.21875,0.734375 L5.98438,-0.0625 L6.75,-9.48438 L16.7656,-9.48438 L16.7656,-7.25 L8.84375,-7.25 L8.375,-1.45313 C8.6875,-1.51563 9.11458,-1.58333 9.65625,-1.65625 C10.1979,-1.72917 10.7969,-1.76563 11.4531,-1.76563 "/>
</g>

<g fill="#c0c0c0" fill-opacity="1" stroke="#c0c0c0" stroke-opacity="1" stroke-width="1" stroke-linecap="square" stroke-linejoin="bevel" transform="matrix(6.12323e-17,-1,1,6.12323e-17,104.739,389.707)"
font-family="Ubuntu" font-size="11" font-weight="400" font-style="normal" 
>
</g>

<g fill="#c0c0c0" fill-opacity="1" stroke="#c0c0c0" stroke-opacity="1" stroke-width="1" stroke-linecap="square" stroke-linejoin="bevel" transform="matrix(1,0,0,1,0,0)"
font-family="Ubuntu" font-size="11" font-weight="400" font-style="normal" 
>
</g>

<g fill="#c0c0c0" fill-opacity="1" stroke="#c0c0c0" stroke-opacity="1" stroke-width="1" stroke-linecap="square" stroke-linejoin="bevel" transform="matrix(1,0,0,1,0,0)"
font-family="Ubuntu" font-size="11" font-weight="400" font-style="normal" 
>
</g>

<g fill="#c0c0c0" fill-opacity="1" stroke="#c0c0c0" stroke-opacity="1" stroke-width="1" stroke-linecap="square" stroke-linejoin="bevel" transform="matrix(1,0,0,1,0,0)"
font-family="Ubuntu" font-size="11" font-weight="400" font-style="normal" 
>
</g>

<g fill="#c0c0c0" fill-opacity="1" stroke="#c0c0c0" stroke-opacity="1" stroke-width="1" stroke-linecap="square" stroke-linejoin="bevel" transform="matrix(6.12323e-17,-1,1,6.12323e-17,104.739,258.86)"
font-family="Ubuntu" font-size="11" font-weight="400" font-style="normal" 
>
</g>

<g fill="#c0c0c0" fill-opacity="1" stroke="none" transform="matrix(4.59243e-17,-0.75,0.75,4.59243e-17,104.739,244.61)"
font-family="bogusxxxxxxxxxxxxxxxxxxxxbogus" font-size="20.8358" font-weight="400" font-style="normal" 
>
<path vector-effect="none" fill-rule="evenodd" d="M-9.82813,10.5 L-12.2344,10.5 L-12.2344,-3.46875 C-12.2344,-4.27083 -12.224,-4.91406 -12.2031,-5.39844 C-12.1823,-5.88281 -12.1563,-6.39063 -12.125,-6.92188 C-12.4167,-6.61979 -12.6849,-6.36719 -12.9297,-6.16406 C-13.1745,-5.96094 -13.4844,-5.69792 -13.8594,-5.375 L-15.9844,-3.64063 L-17.2813,-5.29688 L-11.875,-9.48438 L-9.82813,-9.48438 L-9.82813,10.5 M-1.73438,8.98438 C-1.73438,8.29688 -1.5651,7.8125 -1.22656,7.53125 C-0.888021,7.25 -0.489583,7.10938 -0.03125,7.10938 C0.458333,7.10938 0.875,7.25 1.21875,7.53125 C1.5625,7.8125 1.73438,8.29688 1.73438,8.98438 C1.73438,9.66146 1.5625,10.1484 1.21875,10.4453 C0.875,10.7422 0.458333,10.8906 -0.03125,10.8906 C-0.489583,10.8906 -0.888021,10.7422 -1.22656,10.4453 C-1.5651,10.1484 -1.73438,9.66146 -1.73438,8.98438 M18.3906,0.46875 C18.3906,2.625 18.1667,4.47135 17.7188,6.00781 C17.2708,7.54427 16.5625,8.72396 15.5938,9.54688 C14.625,10.3698 13.3385,10.7813 11.7344,10.7813 C9.47396,10.7813 7.80729,9.86979 6.73438,8.04688 C5.66146,6.22396 5.125,3.69792 5.125,0.46875 C5.125,-1.6875 5.34375,-3.53125 5.78125,-5.0625 C6.21875,-6.59375 6.92188,-7.76563 7.89063,-8.57813 C8.85938,-9.39063 10.1406,-9.79688 11.7344,-9.79688 C13.974,-9.79688 15.6432,-8.89583 16.7422,-7.09375 C17.8411,-5.29167 18.3906,-2.77083 18.3906,0.46875 M7.59375,0.46875 C7.59375,3.21875 7.90625,5.27604 8.53125,6.64063 C9.15625,8.00521 10.224,8.6875 11.7344,8.6875 C13.224,8.6875 14.2917,8.01042 14.9375,6.65625 C15.5833,5.30208 15.9063,3.23958 15.9063,0.46875 C15.9063,-2.25 15.5833,-4.29167 14.9375,-5.65625 C14.2917,-7.02083 13.224,-7.70313 11.7344,-7.70313 C10.224,-7.70313 9.15625,-7.02083 8.53125,-5.65625 C7.90625,-4.29167 7.59375,-2.25 7.59375,0.46875 "/>
</g>

<g fill="#c0c0c0" fill-opacity="1" stroke="#c0c0c0" stroke-opacity="1" stroke-width="1" stroke-linecap="square" stroke-linejoin="bevel" transform="matrix(6.12323e-17,-1,1,6.12323e-17,104.739,258.86)"
font-family="Ubuntu" font-size="11" font-weight="400" font-style="normal" 
>
</g>

<g fill="#c0c0c0" fill-opacity="1" stroke="#c0c0c0" stroke-opacity="1" stroke-width="1" stroke-linecap="square" stroke-linejoin="bevel" transform="matrix(1,0,0,1,0,0)"
font-family="Ubuntu" font-size="11" font-weight="400" font-style="normal" 
>
</g>

<g fill="#c0c0c0" fill-opacity="1" stroke="#c0c0c0" stroke-opacity="1" stroke-width="1" stroke-linecap="square" stroke-linejoin="bevel" transform="matrix(1,0,0,1,0,0)"
font-family="Ubuntu" font-size="11" font-weight="400" font-style="normal" 
>
</g>

<g fill="#c0c0c0" fill-opacity="1" stroke="#c0c0c0" stroke-opacity="1" stroke-width="1" stroke-linecap="square" stroke-linejoin="bevel" transform="matrix(1,0,0,1,0,0)"
font-family="Ubuntu" font-size="11" font-weight="400" font-style="normal" 
>
</g>

<g fill="#c0c0c0" fill-opacity="1" stroke="#c0c0c0" stroke-opacity="1" stroke-width="1" stroke-linecap="square" stroke-linejoin="bevel" transform="matrix(6.12323e-17,-1,1,6.12323e-17,104.739,128.013)"
font-family="Ubuntu" font-size="11" font-weight="400" font-style="normal" 
>
</g>

<g fill="#c0c0c0" fill-opacity="1" stroke="none" transform="matrix(4.59243e-17,-0.75,0.75,4.59243e-17,104.739,113.763)"
font-family="bogusxxxxxxxxxxxxxxxxxxxxbogus" font-size="20.8358" font-weight="400" font-style="normal" 
>
<path vector-effect="none" fill-rule="evenodd" d="M-9.82813,10.5 L-12.2344,10.5 L-12.2344,-3.46875 C-12.2344,-4.27083 -12.224,-4.91406 -12.2031,-5.39844 C-12.1823,-5.88281 -12.1563,-6.39063 -12.125,-6.92188 C-12.4167,-6.61979 -12.6849,-6.36719 -12.9297,-6.16406 C-13.1745,-5.96094 -13.4844,-5.69792 -13.8594,-5.375 L-15.9844,-3.64063 L-17.2813,-5.29688 L-11.875,-9.48438 L-9.82813,-9.48438 L-9.82813,10.5 M-1.73438,8.98438 C-1.73438,8.29688 -1.5651,7.8125 -1.22656,7.53125 C-0.888021,7.25 -0.489583,7.10938 -0.03125,7.10938 C0.458333,7.10938 0.875,7.25 1.21875,7.53125 C1.5625,7.8125 1.73438,8.29688 1.73438,8.98438 C1.73438,9.66146 1.5625,10.1484 1.21875,10.4453 C0.875,10.7422 0.458333,10.8906 -0.03125,10.8906 C-0.489583,10.8906 -0.888021,10.7422 -1.22656,10.4453 C-1.5651,10.1484 -1.73438,9.66146 -1.73438,8.98438 M11.4531,-1.76563 C13.5052,-1.76563 15.138,-1.2526 16.3516,-0.226563 C17.5651,0.799479 18.1719,2.24479 18.1719,4.10938 C18.1719,6.18229 17.513,7.8125 16.1953,9 C14.8776,10.1875 13.0417,10.7813 10.6875,10.7813 C9.66667,10.7813 8.70313,10.6875 7.79688,10.5 C6.89063,10.3125 6.13021,10.0417 5.51563,9.6875 L5.51563,7.35938 C6.18229,7.77604 6.9974,8.10156 7.96094,8.33594 C8.92448,8.57031 9.84375,8.6875 10.7188,8.6875 C12.1979,8.6875 13.3906,8.33594 14.2969,7.63281 C15.2031,6.92969 15.6563,5.84375 15.6563,4.375 C15.6563,3.0625 15.2526,2.05729 14.4453,1.35938 C13.638,0.661458 12.3698,0.3125 10.6406,0.3125 C10.1198,0.3125 9.52344,0.359375 8.85156,0.453125 C8.17969,0.546875 7.63542,0.640625 7.21875,0.734375 L5.98438,-0.0625 L6.75,-9.48438 L16.7656,-9.48438 L16.7656,-7.25 L8.84375,-7.25 L8.375,-1.45313 C8.6875,-1.51563 9.11458,-1.58333 9.65625,-1.65625 C10.1979,-1.72917 10.7969,-1.76563 11.4531,-1.76563 "/>
</g>

<g fill="#c0c0c0" fill-opacity="1" stroke="#c0c0c0" stroke-opacity="1" stroke-width="1" stroke-linecap="square" stroke-linejoin="bevel" transform="matrix(6.12323e-17,-1,1,6.12323e-17,104.739,128.013)"
font-family="Ubuntu" font-size="11" font-weight="400" font-style="normal" 
>
</g>

<g fill="#c0c0c0" fill-opacity="1" stroke="#c0c0c0" stroke-opacity="1" stroke-width="1" stroke-linecap="square" stroke-linejoin="bevel" transform="matrix(1,0,0,1,0,0)"
font-family="Ubuntu" font-size="11" font-weight="400" font-style="normal" 
>
</g>

<g fill="#c0c0c0" fill-opacity="1" stroke="#c0c0c0" stroke-opacity="1" stroke-width="1" stroke-linecap="square" stroke-linejoin="bevel" transform="matrix(1,0,0,1,0,0)"
font-family="Ubuntu" font-size="11" font-weight="400" font-style="normal" 
>
</g>

<g fill="#c0c0c0" fill-opacity="1" stroke="#c0c0c0" stroke-opacity="1" stroke-width="1" stroke-linecap="square" stroke-linejoin="bevel" transform="matrix(1,0,0,1,0,0)"
font-family="Ubuntu" font-size="11" font-weight="400" font-style="normal" 
>
</g>

<g fill="#c0c0c0" fill-opacity="1" stroke="#c0c0c0" stroke-opacity="1" stroke-width="1" stroke-linecap="square" stroke-linejoin="bevel" transform="matrix(1,0,0,1,408.516,30.7801)"
font-family="Ubuntu" font-size="11" font-weight="400" font-style="normal" 
>
</g>

<g fill="#c0c0c0" fill-opacity="1" stroke="none" transform="matrix(0.75,0,0,0.75,414.516,30.7801)"
font-family="bogusxxxxxxxxxxxxxxxxxxxxbogus" font-size="20.8358" font-weight="400" font-style="normal" 
>
<path vector-effect="none" fill-rule="evenodd" d="M0.96875,-4.78125 C2.76042,-4.78125 4.11198,-4.34896 5.02344,-3.48438 C5.9349,-2.61979 6.39063,-1.21354 6.39063,0.734375 L6.39063,10.5 L3.95313,10.5 L3.95313,0.890625 C3.95313,-1.51563 2.83333,-2.71875 0.59375,-2.71875 C-1.0625,-2.71875 -2.20833,-2.2526 -2.84375,-1.32031 C-3.47917,-0.388021 -3.79688,0.958333 -3.79688,2.71875 L-3.79688,10.5 L-6.26563,10.5 L-6.26563,-4.51563 L-4.26563,-4.51563 L-3.90625,-2.46875 L-3.76563,-2.46875 C-3.28646,-3.25 -2.61719,-3.83073 -1.75781,-4.21094 C-0.898438,-4.59115 0.0104167,-4.78125 0.96875,-4.78125 "/>
</g>

<g fill="#c0c0c0" fill-opacity="1" stroke="none" transform="matrix(0.75,0,0,0.75,452.016,42.7801)"
font-family="bogusxxxxxxxxxxxxxxxxxxxxbogus" font-size="15.6269" font-weight="400" font-style="normal" 
>
<path vector-effect="none" fill-rule="evenodd" d="M-31.7031,4.89063 C-31.7031,5.98438 -32.1094,6.8099 -32.9219,7.36719 C-33.7344,7.92448 -34.8229,8.20313 -36.1875,8.20313 C-36.9792,8.20313 -37.6563,8.14063 -38.2188,8.01563 C-38.7813,7.89063 -39.2813,7.71875 -39.7188,7.5 L-39.7188,5.8125 C-39.2708,6.04167 -38.7292,6.25 -38.0938,6.4375 C-37.4583,6.625 -36.8125,6.71875 -36.1563,6.71875 C-35.2188,6.71875 -34.5391,6.56771 -34.1172,6.26563 C-33.6953,5.96354 -33.4844,5.5625 -33.4844,5.0625 C-33.4844,4.78125 -33.5625,4.52865 -33.7188,4.30469 C-33.875,4.08073 -34.151,3.85677 -34.5469,3.63281 C-34.9427,3.40885 -35.5104,3.15625 -36.25,2.875 C-36.9792,2.59375 -37.6042,2.3125 -38.125,2.03125 C-38.6458,1.75 -39.0443,1.41406 -39.3203,1.02344 C-39.5964,0.632813 -39.7344,0.130208 -39.7344,-0.484375 C-39.7344,-1.43229 -39.3464,-2.16667 -38.5703,-2.6875 C-37.7943,-3.20833 -36.776,-3.46875 -35.5156,-3.46875 C-34.8385,-3.46875 -34.2005,-3.40104 -33.6016,-3.26563 C-33.0026,-3.13021 -32.4479,-2.94271 -31.9375,-2.70313 L-32.5625,-1.23438 C-33.0417,-1.43229 -33.5391,-1.60156 -34.0547,-1.74219 C-34.5703,-1.88281 -35.099,-1.95313 -35.6406,-1.95313 C-36.401,-1.95313 -36.9818,-1.83073 -37.3828,-1.58594 C-37.7839,-1.34115 -37.9844,-1.01042 -37.9844,-0.59375 C-37.9844,-0.28125 -37.8932,-0.015625 -37.7109,0.203125 C-37.5286,0.421875 -37.224,0.632813 -36.7969,0.835938 C-36.3698,1.03906 -35.7969,1.27604 -35.0781,1.54688 C-34.3698,1.81771 -33.763,2.09375 -33.2578,2.375 C-32.7526,2.65625 -32.3672,2.99479 -32.1016,3.39063 C-31.8359,3.78646 -31.7031,4.28646 -31.7031,4.89063 M-24.7188,-3.4375 C-23.3438,-3.4375 -22.3281,-3.13802 -21.6719,-2.53906 C-21.0156,-1.9401 -20.6875,-0.979167 -20.6875,0.34375 L-20.6875,8 L-22.0313,8 L-22.3906,6.40625 L-22.4688,6.40625 C-22.9583,7.02083 -23.474,7.47396 -24.0156,7.76563 C-24.5573,8.05729 -25.3021,8.20313 -26.25,8.20313 C-27.2708,8.20313 -28.1172,7.9349 -28.7891,7.39844 C-29.4609,6.86198 -29.7969,6.02083 -29.7969,4.875 C-29.7969,3.75 -29.3568,2.88281 -28.4766,2.27344 C-27.5964,1.66406 -26.2396,1.33333 -24.4063,1.28125 L-22.5,1.21875 L-22.5,0.546875 C-22.5,-0.390625 -22.7005,-1.04167 -23.1016,-1.40625 C-23.5026,-1.77083 -24.0781,-1.95313 -24.8281,-1.95313 C-25.4115,-1.95313 -25.9688,-1.86458 -26.5,-1.6875 C-27.0313,-1.51042 -27.5313,-1.3125 -28,-1.09375 L-28.5625,-2.48438 C-28.0729,-2.74479 -27.4922,-2.96875 -26.8203,-3.15625 C-26.1484,-3.34375 -25.4479,-3.4375 -24.7188,-3.4375 M-24.1719,2.5625 C-25.5677,2.61458 -26.5365,2.83854 -27.0781,3.23438 C-27.6198,3.63021 -27.8906,4.18229 -27.8906,4.89063 C-27.8906,5.52604 -27.6979,5.98958 -27.3125,6.28125 C-26.9271,6.57292 -26.4323,6.71875 -25.8281,6.71875 C-24.8802,6.71875 -24.0911,6.45573 -23.4609,5.92969 C-22.8307,5.40365 -22.5156,4.59375 -22.5156,3.5 L-22.5156,2.5 L-24.1719,2.5625 M-4.875,-3.46875 C-3.59375,-3.46875 -2.63802,-3.14323 -2.00781,-2.49219 C-1.3776,-1.84115 -1.0625,-0.786458 -1.0625,0.671875 L-1.0625,8 L-2.89063,8 L-2.89063,0.75 C-2.89063,-1.02083 -3.65625,-1.90625 -5.1875,-1.90625 C-6.28125,-1.90625 -7.0625,-1.59115 -7.53125,-0.960938 C-8,-0.330729 -8.23438,0.583333 -8.23438,1.78125 L-8.23438,8 L-10.0625,8 L-10.0625,0.75 C-10.0625,-1.02083 -10.8281,-1.90625 -12.3594,-1.90625 C-13.4948,-1.90625 -14.2813,-1.55729 -14.7188,-0.859375 C-15.1563,-0.161458 -15.375,0.84375 -15.375,2.15625 L-15.375,8 L-17.2188,8 L-17.2188,-3.25 L-15.7188,-3.25 L-15.4531,-1.71875 L-15.3438,-1.71875 C-15,-2.3125 -14.5286,-2.7526 -13.9297,-3.03906 C-13.3307,-3.32552 -12.6979,-3.46875 -12.0313,-3.46875 C-10.2708,-3.46875 -9.11979,-2.83854 -8.57813,-1.57813 L-8.48438,-1.57813 C-8.09896,-2.22396 -7.58333,-2.70052 -6.9375,-3.00781 C-6.29167,-3.3151 -5.60417,-3.46875 -4.875,-3.46875 M7.76563,-3.46875 C9.15104,-3.46875 10.2682,-2.98438 11.1172,-2.01563 C11.9661,-1.04688 12.3906,0.411458 12.3906,2.35938 C12.3906,4.27604 11.9661,5.72917 11.1172,6.71875 C10.2682,7.70833 9.14583,8.20313 7.75,8.20313 C6.875,8.20313 6.15365,8.03906 5.58594,7.71094 C5.01823,7.38281 4.57292,7.00521 4.25,6.57813 L4.125,6.57813 C4.15625,6.80729 4.1849,7.10417 4.21094,7.46875 C4.23698,7.83333 4.25,8.15104 4.25,8.42188 L4.25,13.0469 L2.40625,13.0469 L2.40625,-3.25 L3.92188,-3.25 L4.17188,-1.71875 L4.25,-1.71875 C4.59375,-2.20833 5.03906,-2.6224 5.58594,-2.96094 C6.13281,-3.29948 6.85938,-3.46875 7.76563,-3.46875 M7.42188,-1.90625 C6.27604,-1.90625 5.46875,-1.58594 5,-0.945313 C4.53125,-0.304688 4.28125,0.677083 4.25,2 L4.25,2.35938 C4.25,3.74479 4.47917,4.8099 4.9375,5.55469 C5.39583,6.29948 6.23958,6.67188 7.46875,6.67188 C8.15625,6.67188 8.72135,6.48438 9.16406,6.10938 C9.60677,5.73438 9.9349,5.22135 10.1484,4.57031 C10.362,3.91927 10.4688,3.17188 10.4688,2.32813 C10.4688,1.04688 10.2214,0.0208333 9.72656,-0.75 C9.23177,-1.52083 8.46354,-1.90625 7.42188,-1.90625 M17.1563,8 L15.3125,8 L15.3125,-7.95313 L17.1563,-7.95313 L17.1563,8 M25.0625,-3.46875 C26.0313,-3.46875 26.862,-3.25781 27.5547,-2.83594 C28.2474,-2.41406 28.7786,-1.82292 29.1484,-1.0625 C29.5182,-0.302083 29.7031,0.588542 29.7031,1.60938 L29.7031,2.73438 L22,2.73438 C22.0313,4.00521 22.3568,4.97396 22.9766,5.64063 C23.5964,6.30729 24.4688,6.64063 25.5938,6.64063 C26.3125,6.64063 26.9479,6.57292 27.5,6.4375 C28.0521,6.30208 28.6198,6.10938 29.2031,5.85938 L29.2031,7.46875 C28.6302,7.72917 28.0651,7.91667 27.5078,8.03125 C26.9505,8.14583 26.2865,8.20313 25.5156,8.20313 C24.4427,8.20313 23.4974,7.98698 22.6797,7.55469 C21.862,7.1224 21.2266,6.47656 20.7734,5.61719 C20.3203,4.75781 20.0938,3.70313 20.0938,2.45313 C20.0938,1.22396 20.2995,0.169271 20.7109,-0.710938 C21.1224,-1.59115 21.7031,-2.27083 22.4531,-2.75 C23.2031,-3.22917 24.0729,-3.46875 25.0625,-3.46875 M25.0469,-1.95313 C24.1615,-1.95313 23.4635,-1.66927 22.9531,-1.10156 C22.4427,-0.533854 22.1406,0.255208 22.0469,1.26563 L27.7813,1.26563 C27.7604,0.307292 27.5339,-0.46875 27.1016,-1.0625 C26.6693,-1.65625 25.9844,-1.95313 25.0469,-1.95313 M39.8906,4.89063 C39.8906,5.98438 39.4844,6.8099 38.6719,7.36719 C37.8594,7.92448 36.7708,8.20313 35.4063,8.20313 C34.6146,8.20313 33.9375,8.14063 33.375,8.01563 C32.8125,7.89063 32.3125,7.71875 31.875,7.5 L31.875,5.8125 C32.3229,6.04167 32.8646,6.25 33.5,6.4375 C34.1354,6.625 34.7813,6.71875 35.4375,6.71875 C36.375,6.71875 37.0547,6.56771 37.4766,6.26563 C37.8984,5.96354 38.1094,5.5625 38.1094,5.0625 C38.1094,4.78125 38.0313,4.52865 37.875,4.30469 C37.7188,4.08073 37.4427,3.85677 37.0469,3.63281 C36.651,3.40885 36.0833,3.15625 35.3438,2.875 C34.6146,2.59375 33.9896,2.3125 33.4688,2.03125 C32.9479,1.75 32.5495,1.41406 32.2734,1.02344 C31.9974,0.632813 31.8594,0.130208 31.8594,-0.484375 C31.8594,-1.43229 32.2474,-2.16667 33.0234,-2.6875 C33.7995,-3.20833 34.8177,-3.46875 36.0781,-3.46875 C36.7552,-3.46875 37.3932,-3.40104 37.9922,-3.26563 C38.5911,-3.13021 39.1458,-2.94271 39.6563,-2.70313 L39.0313,-1.23438 C38.5521,-1.43229 38.0547,-1.60156 37.5391,-1.74219 C37.0234,-1.88281 36.4948,-1.95313 35.9531,-1.95313 C35.1927,-1.95313 34.612,-1.83073 34.2109,-1.58594 C33.8099,-1.34115 33.6094,-1.01042 33.6094,-0.59375 C33.6094,-0.28125 33.7005,-0.015625 33.8828,0.203125 C34.0651,0.421875 34.3698,0.632813 34.7969,0.835938 C35.224,1.03906 35.7969,1.27604 36.5156,1.54688 C37.224,1.81771 37.8307,2.09375 38.3359,2.375 C38.8411,2.65625 39.2266,2.99479 39.4922,3.39063 C39.7578,3.78646 39.8906,4.28646 39.8906,4.89063 "/>
</g>

<g fill="#c0c0c0" fill-opacity="1" stroke="none" transform="matrix(0.75,0,0,0.75,500.016,30.7801)"
font-family="bogusxxxxxxxxxxxxxxxxxxxxbogus" font-size="20.8358" font-weight="400" font-style="normal" 
>
<path vector-effect="none" fill-rule="evenodd" d="M-14.4531,-1.14063 L-14.4531,-3.14063 L-1.625,-3.14063 L-1.625,-1.14063 L-14.4531,-1.14063 M-14.4531,4.42188 L-14.4531,2.4375 L-1.625,2.4375 L-1.625,4.42188 L-14.4531,4.42188 M21.0625,-4.8125 C21.0625,-3.46875 20.6901,-2.40104 19.9453,-1.60938 C19.2005,-0.817708 18.1927,-0.291667 16.9219,-0.03125 L16.9219,0.078125 C18.526,0.265625 19.7214,0.770833 20.5078,1.59375 C21.2943,2.41667 21.6875,3.48958 21.6875,4.8125 C21.6875,5.96875 21.4167,7 20.875,7.90625 C20.3333,8.8125 19.4974,9.51823 18.3672,10.0234 C17.237,10.5286 15.7865,10.7813 14.0156,10.7813 C12.974,10.7813 12.0026,10.7005 11.1016,10.5391 C10.2005,10.3776 9.34375,10.0938 8.53125,9.6875 L8.53125,7.39063 C9.36458,7.80729 10.2682,8.13021 11.2422,8.35938 C12.2161,8.58854 13.151,8.70313 14.0469,8.70313 C15.8385,8.70313 17.1302,8.35417 17.9219,7.65625 C18.7135,6.95833 19.1094,5.99479 19.1094,4.76563 C19.1094,3.51563 18.6198,2.61458 17.6406,2.0625 C16.6615,1.51042 15.2865,1.23438 13.5156,1.23438 L11.5781,1.23438 L11.5781,-0.875 L13.5313,-0.875 C15.1771,-0.875 16.4245,-1.21875 17.2734,-1.90625 C18.1224,-2.59375 18.5469,-3.50521 18.5469,-4.64063 C18.5469,-5.61979 18.2214,-6.375 17.5703,-6.90625 C16.9193,-7.4375 16.0313,-7.70313 14.9063,-7.70313 C13.8229,-7.70313 12.8984,-7.54427 12.1328,-7.22656 C11.3672,-6.90885 10.6146,-6.50521 9.875,-6.01563 L8.64063,-7.70313 C9.34896,-8.26563 10.2292,-8.75 11.2813,-9.15625 C12.3333,-9.5625 13.5313,-9.76563 14.875,-9.76563 C16.9688,-9.76563 18.5234,-9.29948 19.5391,-8.36719 C20.5547,-7.4349 21.0625,-6.25 21.0625,-4.8125 "/>
</g>

<g fill="#c0c0c0" fill-opacity="1" stroke="#c0c0c0" stroke-opacity="1" stroke-width="1" stroke-linecap="square" stroke-linejoin="bevel" transform="matrix(1,0,0,1,408.516,30.7801)"
font-family="Ubuntu" font-size="11" font-weight="400" font-style="normal" 
>
</g>

<g fill="#c0c0c0" fill-opacity="1" stroke="#c0c0c0" stroke-opacity="1" stroke-width="1" stroke-linecap="square" stroke-linejoin="bevel" transform="matrix(1,0,0,1,0,0)"
font-family="Ubuntu" font-size="11" font-weight="400" font-style="normal" 
>
</g>

<g fill="#c0c0c0" fill-opacity="1" stroke="#c0c0c0" stroke-opacity="1" stroke-width="1" stroke-linecap="square" stroke-linejoin="bevel" transform="matrix(1,0,0,1,0,0)"
font-family="Ubuntu" font-size="11" font-weight="400" font-style="normal" 
>
</g>

<g fill="#c0c0c0" fill-opacity="1" stroke="#c0c0c0" stroke-opacity="1" stroke-width="1" stroke-linecap="square" stroke-linejoin="bevel" transform="matrix(1,0,0,1,0,0)"
font-family="Ubuntu" font-size="11" font-weight="400" font-style="normal" 
>
</g>

<g fill="#c0c0c0" fill-opacity="1" stroke="#c0c0c0" stroke-opacity="1" stroke-width="1" stroke-linecap="square" stroke-linejoin="bevel" transform="matrix(1,0,0,1,432.826,551.727)"
font-family="Ubuntu" font-size="11" font-weight="400" font-style="normal" 
>
</g>

<g fill="#c0c0c0" fill-opacity="1" stroke="none" transform="matrix(0.75,0,0,0.75,462.826,551.727)"
font-family="bogusxxxxxxxxxxxxxxxxxxxxbogus" font-size="20.8358" font-weight="400" font-style="normal" 
>
<path vector-effect="none" fill-rule="evenodd" d="M-32.1563,-4.78125 C-30.8646,-4.78125 -29.7578,-4.5026 -28.8359,-3.94531 C-27.9141,-3.38802 -27.2057,-2.60156 -26.7109,-1.58594 C-26.2161,-0.570313 -25.9688,0.619792 -25.9688,1.98438 L-25.9688,3.46875 L-36.2344,3.46875 C-36.2031,5.16667 -35.7708,6.46094 -34.9375,7.35156 C-34.1042,8.24219 -32.9427,8.6875 -31.4531,8.6875 C-30.5052,8.6875 -29.6615,8.59635 -28.9219,8.41406 C-28.1823,8.23177 -27.4219,7.97396 -26.6406,7.64063 L-26.6406,9.79688 C-27.401,10.1302 -28.1563,10.3776 -28.9063,10.5391 C-29.6563,10.7005 -30.5417,10.7813 -31.5625,10.7813 C-32.9792,10.7813 -34.2344,10.4922 -35.3281,9.91406 C-36.4219,9.33594 -37.2708,8.47135 -37.875,7.32031 C-38.4792,6.16927 -38.7813,4.76563 -38.7813,3.10938 C-38.7813,1.46354 -38.5078,0.0520833 -37.9609,-1.125 C-37.4141,-2.30208 -36.6406,-3.20573 -35.6406,-3.83594 C-34.6406,-4.46615 -33.4792,-4.78125 -32.1563,-4.78125 M-32.1875,-2.76563 C-33.3542,-2.76563 -34.2786,-2.38802 -34.9609,-1.63281 C-35.6432,-0.877604 -36.0521,0.171875 -36.1875,1.51563 L-28.5469,1.51563 C-28.5573,0.244792 -28.8516,-0.786458 -29.4297,-1.57813 C-30.0078,-2.36979 -30.9271,-2.76563 -32.1875,-2.76563 M-15.0313,-4.78125 C-13.1771,-4.78125 -11.6849,-4.13802 -10.5547,-2.85156 C-9.42448,-1.5651 -8.85938,0.375 -8.85938,2.96875 C-8.85938,5.52083 -9.42448,7.46094 -10.5547,8.78906 C-11.6849,10.1172 -13.1875,10.7813 -15.0625,10.7813 C-16.2188,10.7813 -17.1745,10.5625 -17.9297,10.125 C-18.6849,9.6875 -19.276,9.17708 -19.7031,8.59375 L-19.875,8.59375 C-19.8333,8.91667 -19.7943,9.32031 -19.7578,9.80469 C-19.7214,10.2891 -19.7031,10.7083 -19.7031,11.0625 L-19.7031,17.2188 L-22.1719,17.2188 L-22.1719,-4.51563 L-20.1563,-4.51563 L-19.8125,-2.46875 L-19.7031,-2.46875 C-19.2552,-3.11458 -18.6667,-3.66146 -17.9375,-4.10938 C-17.2083,-4.55729 -16.2396,-4.78125 -15.0313,-4.78125 M-15.4688,-2.71875 C-17,-2.71875 -18.0781,-2.28906 -18.7031,-1.42969 C-19.3281,-0.570313 -19.6615,0.734375 -19.7031,2.48438 L-19.7031,2.96875 C-19.7031,4.8125 -19.401,6.23438 -18.7969,7.23438 C-18.1927,8.23438 -17.0677,8.73438 -15.4219,8.73438 C-14.5052,8.73438 -13.7526,8.48177 -13.1641,7.97656 C-12.5755,7.47135 -12.138,6.78646 -11.8516,5.92188 C-11.5651,5.05729 -11.4219,4.0625 -11.4219,2.9375 C-11.4219,1.21875 -11.7526,-0.153646 -12.4141,-1.17969 C-13.0755,-2.20573 -14.0938,-2.71875 -15.4688,-2.71875 M8.09375,2.96875 C8.09375,5.44792 7.46354,7.36979 6.20313,8.73438 C4.94271,10.099 3.23958,10.7813 1.09375,10.7813 C-0.229167,10.7813 -1.40885,10.4766 -2.44531,9.86719 C-3.48177,9.25781 -4.29688,8.36979 -4.89063,7.20313 C-5.48438,6.03646 -5.78125,4.625 -5.78125,2.96875 C-5.78125,0.489583 -5.15625,-1.42188 -3.90625,-2.76563 C-2.65625,-4.10938 -0.958333,-4.78125 1.1875,-4.78125 C2.55208,-4.78125 3.75,-4.47917 4.78125,-3.875 C5.8125,-3.27083 6.6224,-2.39583 7.21094,-1.25 C7.79948,-0.104167 8.09375,1.30208 8.09375,2.96875 M-3.23438,2.96875 C-3.23438,4.73958 -2.88542,6.14323 -2.1875,7.17969 C-1.48958,8.21615 -0.375,8.73438 1.15625,8.73438 C2.66667,8.73438 3.77604,8.21615 4.48438,7.17969 C5.19271,6.14323 5.54688,4.73958 5.54688,2.96875 C5.54688,1.19792 5.19271,-0.192708 4.48438,-1.20313 C3.77604,-2.21354 2.65625,-2.71875 1.125,-2.71875 C-0.40625,-2.71875 -1.51563,-2.21354 -2.20313,-1.20313 C-2.89063,-0.192708 -3.23438,1.19792 -3.23438,2.96875 M18.0156,10.7813 C16.6823,10.7813 15.4974,10.5104 14.4609,9.96875 C13.4245,9.42708 12.6146,8.58594 12.0313,7.44531 C11.4479,6.30469 11.1563,4.84896 11.1563,3.07813 C11.1563,1.23438 11.4635,-0.265625 12.0781,-1.42188 C12.6927,-2.57813 13.526,-3.42708 14.5781,-3.96875 C15.6302,-4.51042 16.8281,-4.78125 18.1719,-4.78125 C18.9427,-4.78125 19.6823,-4.70313 20.3906,-4.54688 C21.099,-4.39063 21.6771,-4.19792 22.125,-3.96875 L21.375,-1.9375 C20.9271,-2.10417 20.4036,-2.26042 19.8047,-2.40625 C19.2057,-2.55208 18.6458,-2.625 18.125,-2.625 C15.1771,-2.625 13.7031,-0.734375 13.7031,3.04688 C13.7031,4.85938 14.0625,6.2474 14.7813,7.21094 C15.5,8.17448 16.5677,8.65625 17.9844,8.65625 C18.8073,8.65625 19.5313,8.57031 20.1563,8.39844 C20.7813,8.22656 21.3542,8.02083 21.875,7.78125 L21.875,9.96875 C21.375,10.2292 20.8203,10.4297 20.2109,10.5703 C19.6016,10.7109 18.8698,10.7813 18.0156,10.7813 M27.8906,-4.53125 C27.8906,-3.79167 27.8438,-3.09375 27.75,-2.4375 L27.9219,-2.4375 C28.401,-3.19792 29.0573,-3.77604 29.8906,-4.17188 C30.724,-4.56771 31.625,-4.76563 32.5938,-4.76563 C34.4271,-4.76563 35.7995,-4.33073 36.7109,-3.46094 C37.6224,-2.59115 38.0781,-1.19271 38.0781,0.734375 L38.0781,10.5 L35.6406,10.5 L35.6406,0.890625 C35.6406,-1.51563 34.5208,-2.71875 32.2813,-2.71875 C30.6042,-2.71875 29.4531,-2.2474 28.8281,-1.30469 C28.2031,-0.361979 27.8906,0.989583 27.8906,2.75 L27.8906,10.5 L25.4219,10.5 L25.4219,-10.7813 L27.8906,-10.7813 L27.8906,-4.53125"/>
</g>

<g fill="#c0c0c0" fill-opacity="1" stroke="#c0c0c0" stroke-opacity="1" stroke-width="1" stroke-linecap="square" stroke-linejoin="bevel" transform="matrix(1,0,0,1,432.826,551.727)"
font-family="Ubuntu" font-size="11" font-weight="400" font-style="normal" 
>
</g>

<g fill="#c0c0c0" fill-opacity="1" stroke="#c0c0c0" stroke-opacity="1" stroke-width="1" stroke-linecap="square" stroke-linejoin="bevel" transform="matrix(1,0,0,1,0,0)"
font-family="Ubuntu" font-size="11" font-weight="400" font-style="normal" 
>
</g>

<g fill="#c0c0c0" fill-opacity="1" stroke="#c0c0c0" stroke-opacity="1" stroke-width="1" stroke-linecap="square" stroke-linejoin="bevel" transform="matrix(1,0,0,1,0,0)"
font-family="Ubuntu" font-size="11" font-weight="400" font-style="normal" 
>
</g>

<g fill="#c0c0c0" fill-opacity="1" stroke="#c0c0c0" stroke-opacity="1" stroke-width="1" stroke-linecap="square" stroke-linejoin="bevel" transform="matrix(1,0,0,1,0,0)"
font-family="Ubuntu" font-size="11" font-weight="400" font-style="normal" 
>
</g>

<g fill="#c0c0c0" fill-opacity="1" stroke="#c0c0c0" stroke-opacity="1" stroke-width="1" stroke-linecap="square" stroke-linejoin="bevel" transform="matrix(6.12323e-17,-1,1,6.12323e-17,54.4511,311.496)"
font-family="Ubuntu" font-size="11" font-weight="400" font-style="normal" 
>
</g>

<g fill="#c0c0c0" fill-opacity="1" stroke="none" transform="matrix(4.59243e-17,-0.75,0.75,4.59243e-17,54.4511,282.996)"
font-family="bogusxxxxxxxxxxxxxxxxxxxxbogus" font-size="20.8358" font-weight="400" font-style="normal" 
>
<path vector-effect="none" fill-rule="evenodd" d="M-35.7969,10.5 L-23.5938,-9.48438 L-21.4844,-9.48438 L-33.7031,10.5 L-35.7969,10.5 M-34.1719,-5.23438 C-34.1719,-5.72396 -34.1589,-6.16406 -34.1328,-6.55469 C-34.1068,-6.94531 -34.0833,-7.33854 -34.0625,-7.73438 C-34.25,-7.55729 -34.4557,-7.3724 -34.6797,-7.17969 C-34.9036,-6.98698 -35.1354,-6.80729 -35.375,-6.64063 L-36.8906,-5.54688 L-37.875,-6.92188 L-34.2344,-9.48438 L-32.1875,-9.48438 L-32.1875,2.48438 L-34.1719,2.48438 L-34.1719,-5.23438 M-26.0313,10.5 L-26.0313,8.98438 L-22.7969,5.85938 C-22.0365,5.13021 -21.4661,4.53646 -21.0859,4.07813 C-20.7057,3.61979 -20.4453,3.20833 -20.3047,2.84375 C-20.1641,2.47917 -20.0938,2.09375 -20.0938,1.6875 C-20.0938,1.08333 -20.2656,0.632813 -20.6094,0.335938 C-20.9531,0.0390625 -21.4063,-0.109375 -21.9688,-0.109375 C-22.5208,-0.109375 -23.026,-0.00260417 -23.4844,0.210938 C-23.9427,0.424479 -24.4167,0.71875 -24.9063,1.09375 L-25.8906,-0.203125 C-25.349,-0.661458 -24.7552,-1.03125 -24.1094,-1.3125 C-23.4635,-1.59375 -22.7396,-1.73438 -21.9375,-1.73438 C-20.7396,-1.73438 -19.7995,-1.4401 -19.1172,-0.851563 C-18.4349,-0.263021 -18.0938,0.541667 -18.0938,1.5625 C-18.0938,2.47917 -18.3698,3.30208 -18.9219,4.03125 C-19.474,4.76042 -20.276,5.61979 -21.3281,6.60938 L-23.5938,8.76563 L-18.125,8.76563 L-18.125,10.5 L-26.0313,10.5 M4.42188,5.15625 C4.42188,6.92708 3.77604,8.30729 2.48438,9.29688 C1.19271,10.2865 -0.541667,10.7813 -2.71875,10.7813 C-3.84375,10.7813 -4.88281,10.6979 -5.83594,10.5313 C-6.78906,10.3646 -7.58333,10.1302 -8.21875,9.82813 L-8.21875,7.42188 C-7.54167,7.72396 -6.70313,7.99479 -5.70313,8.23438 C-4.70313,8.47396 -3.67188,8.59375 -2.60938,8.59375 C-1.11979,8.59375 0.00260417,8.30469 0.757813,7.72656 C1.51302,7.14844 1.89063,6.36458 1.89063,5.375 C1.89063,4.71875 1.7526,4.16667 1.47656,3.71875 C1.20052,3.27083 0.721354,2.85677 0.0390625,2.47656 C-0.643229,2.09635 -1.59375,1.69271 -2.8125,1.26563 C-4.51042,0.651042 -5.79167,-0.106771 -6.65625,-1.00781 C-7.52083,-1.90885 -7.95313,-3.13021 -7.95313,-4.67188 C-7.95313,-5.73438 -7.6849,-6.64583 -7.14844,-7.40625 C-6.61198,-8.16667 -5.86198,-8.75 -4.89844,-9.15625 C-3.9349,-9.5625 -2.82813,-9.76563 -1.57813,-9.76563 C-0.473958,-9.76563 0.533854,-9.66406 1.44531,-9.46094 C2.35677,-9.25781 3.1875,-8.98958 3.9375,-8.65625 L3.15625,-6.5 C2.46875,-6.79167 1.71875,-7.04167 0.90625,-7.25 C0.09375,-7.45833 -0.75,-7.5625 -1.625,-7.5625 C-2.88542,-7.5625 -3.83073,-7.29688 -4.46094,-6.76563 C-5.09115,-6.23438 -5.40625,-5.52604 -5.40625,-4.64063 C-5.40625,-3.97396 -5.26823,-3.41667 -4.99219,-2.96875 C-4.71615,-2.52083 -4.26042,-2.11979 -3.625,-1.76563 C-2.98958,-1.41146 -2.13021,-1.02604 -1.04688,-0.609375 C0.130208,-0.182292 1.125,0.278646 1.9375,0.773438 C2.75,1.26823 3.36719,1.85938 3.78906,2.54688 C4.21094,3.23438 4.42188,4.10417 4.42188,5.15625 M19.7813,5.15625 C19.7813,6.92708 19.1354,8.30729 17.8438,9.29688 C16.5521,10.2865 14.8177,10.7813 12.6406,10.7813 C11.5156,10.7813 10.4766,10.6979 9.52344,10.5313 C8.57031,10.3646 7.77604,10.1302 7.14063,9.82813 L7.14063,7.42188 C7.81771,7.72396 8.65625,7.99479 9.65625,8.23438 C10.6563,8.47396 11.6875,8.59375 12.75,8.59375 C14.2396,8.59375 15.362,8.30469 16.1172,7.72656 C16.8724,7.14844 17.25,6.36458 17.25,5.375 C17.25,4.71875 17.112,4.16667 16.8359,3.71875 C16.5599,3.27083 16.0807,2.85677 15.3984,2.47656 C14.7161,2.09635 13.7656,1.69271 12.5469,1.26563 C10.849,0.651042 9.56771,-0.106771 8.70313,-1.00781 C7.83854,-1.90885 7.40625,-3.13021 7.40625,-4.67188 C7.40625,-5.73438 7.67448,-6.64583 8.21094,-7.40625 C8.7474,-8.16667 9.4974,-8.75 10.4609,-9.15625 C11.4245,-9.5625 12.5313,-9.76563 13.7813,-9.76563 C14.8854,-9.76563 15.8932,-9.66406 16.8047,-9.46094 C17.7161,-9.25781 18.5469,-8.98958 19.2969,-8.65625 L18.5156,-6.5 C17.8281,-6.79167 17.0781,-7.04167 16.2656,-7.25 C15.4531,-7.45833 14.6094,-7.5625 13.7344,-7.5625 C12.474,-7.5625 11.5286,-7.29688 10.8984,-6.76563 C10.2682,-6.23438 9.95313,-5.52604 9.95313,-4.64063 C9.95313,-3.97396 10.0911,-3.41667 10.3672,-2.96875 C10.6432,-2.52083 11.099,-2.11979 11.7344,-1.76563 C12.3698,-1.41146 13.2292,-1.02604 14.3125,-0.609375 C15.4896,-0.182292 16.4844,0.278646 17.2969,0.773438 C18.1094,1.26823 18.7266,1.85938 19.1484,2.54688 C19.5703,3.23438 19.7813,4.10417 19.7813,5.15625 M29.3125,-9.48438 C31.7917,-9.48438 33.625,-9.01302 34.8125,-8.07031 C36,-7.1276 36.5938,-5.70833 36.5938,-3.8125 C36.5938,-2.75 36.3984,-1.86198 36.0078,-1.14844 C35.6172,-0.434896 35.1172,0.130208 34.5078,0.546875 C33.8984,0.963542 33.2604,1.29688 32.5938,1.54688 L38.0781,10.5 L35.1406,10.5 L30.2969,2.23438 L26.3125,2.23438 L26.3125,10.5 L23.7969,10.5 L23.7969,-9.48438 L29.3125,-9.48438 M29.1719,-7.3125 L26.3125,-7.3125 L26.3125,0.109375 L29.3125,0.109375 C30.9375,0.109375 32.1224,-0.210938 32.8672,-0.851563 C33.612,-1.49219 33.9844,-2.44271 33.9844,-3.70313 C33.9844,-5.00521 33.5938,-5.93229 32.8125,-6.48438 C32.0313,-7.03646 30.8177,-7.3125 29.1719,-7.3125 "/>
</g>

<g fill="#c0c0c0" fill-opacity="1" stroke="#c0c0c0" stroke-opacity="1" stroke-width="1" stroke-linecap="square" stroke-linejoin="bevel" transform="matrix(6.12323e-17,-1,1,6.12323e-17,54.4511,311.496)"
font-family="Ubuntu" font-size="11" font-weight="400" font-style="normal" 
>
</g>

<g fill="#c0c0c0" fill-opacity="1" stroke="#c0c0c0" stroke-opacity="1" stroke-width="1" stroke-linecap="square" stroke-linejoin="bevel" transform="matrix(1,0,0,1,0,0)"
font-family="Ubuntu" font-size="11" font-weight="400" font-style="normal" 
>
</g>

<g fill="#ff0080" fill-opacity="1" stroke="#ff0080" stroke-opacity="1" stroke-width="2" stroke-linecap="square" stroke-linejoin="bevel" transform="matrix(1,0,0,1,0,0)"
font-family="Ubuntu" font-size="11" font-weight="400" font-style="normal" 
>
<polyline fill="none" vector-effect="none" points="126.299,59.5089 127.635,187.606 128.997,278.29 130.333,342.762 131.695,388.631 133.031,421.291 134.367,444.572 135.729,461.172 137.066,472.993 138.428,481.421 139.764,487.434 141.126,491.7 142.462,494.758 143.798,496.942 145.16,498.484 146.496,499.614 147.858,500.385 149.194,500.976 150.556,501.362 151.893,501.67 153.229,501.876 154.591,502.03 155.927,502.133 157.289,502.21 158.625,502.261 159.987,502.312 161.323,502.338 162.659,502.364 164.021,502.39 165.358,502.415 166.719,502.415 168.056,502.441 169.418,502.441 170.754,502.441 172.09,502.467 173.452,502.467 174.788,502.467 176.15,502.467 177.486,502.492 178.823,502.492 180.184,502.492 181.521,502.492 182.883,502.518 184.219,502.518 185.581,502.518 186.917,502.518 188.253,502.544 189.615,502.544 190.951,502.544 192.313,502.544 193.649,502.569 195.011,502.569 196.348,502.569 197.684,502.569 199.046,502.595 200.382,502.595 201.744,502.595 203.08,502.595 204.442,502.621 205.778,502.621 207.114,502.621 208.476,502.621 209.813,502.621 211.175,502.646 212.511,502.646 213.873,502.646 215.209,502.646 216.545,502.672 217.907,502.672 219.243,502.672 220.605,502.672 221.941,502.698 223.278,502.698 224.64,502.698 225.976,502.698 227.338,502.698 228.674,502.724 230.036,502.724 231.372,502.724 232.708,502.724 234.07,502.749 235.406,502.749 236.768,502.749 238.105,502.749 239.466,502.749 240.803,502.775 242.139,502.775 243.501,502.775 244.837,502.775 246.199,502.801 247.535,502.801 248.897,502.801 250.233,502.801 251.57,502.801 252.931,502.826 254.268,502.826 255.63,502.826 256.966,502.826 258.328,502.826 259.664,502.852 261,502.852 262.362,502.852 263.698,502.852 265.06,502.878 266.396,502.878 267.758,502.878 269.095,502.878 270.431,502.878 271.793,502.903 273.129,502.903 274.491,502.903 275.827,502.903 277.163,502.903 278.525,502.929 279.862,502.929 281.223,502.929 282.56,502.929 283.922,502.929 285.258,502.955 286.594,502.955 287.956,502.955 289.292,502.955 290.654,502.981 291.99,502.981 293.352,502.981 294.688,502.981 296.025,502.981 297.387,503.006 298.723,503.006 300.085,503.006 301.421,503.006 302.783,503.006 304.119,503.032 305.455,503.032 306.817,503.032 308.153,503.032 309.515,503.032 310.852,503.058 312.214,503.058 313.55,503.058 314.886,503.058 316.248,503.058 317.584,503.083 318.946,503.083 320.282,503.083 321.644,503.083 322.98,503.083 324.317,503.109 325.679,503.109 327.015,503.109 328.377,503.109 329.713,503.109 331.049,503.135 332.411,503.135 333.747,503.135 335.109,503.135 336.445,503.135 337.807,503.135 339.144,503.16 340.48,503.16 341.842,503.16 343.178,503.16 344.54,503.16 345.876,503.186 347.238,503.186 348.574,503.186 349.91,503.186 351.272,503.186 352.609,503.212 353.97,503.212 355.307,503.212 356.669,503.212 358.005,503.212 359.341,503.237 360.703,503.237 362.039,503.237 363.401,503.237 364.737,503.237 366.099,503.237 367.435,503.263 368.772,503.263 370.134,503.263 371.47,503.263 372.832,503.263 374.168,503.289 375.53,503.289 376.866,503.289 378.202,503.289 379.564,503.289 380.9,503.289 382.262,503.315 383.599,503.315 384.935,503.315 386.297,503.315 387.633,503.315 388.995,503.34 390.331,503.34 391.693,503.34 393.029,503.34 394.365,503.34 395.727,503.34 397.064,503.366 398.426,503.366 399.762,503.366 401.124,503.366 402.46,503.366 403.796,503.392 405.158,503.392 406.494,503.392 407.856,503.392 409.192,503.392 410.554,503.392 411.891,503.417 413.227,503.417 414.589,503.417 415.925,503.417 417.287,503.417 418.623,503.417 419.985,503.443 421.321,503.443 422.657,503.443 424.019,503.443 425.356,503.443 426.717,503.443 428.054,503.469 429.416,503.469 430.752,503.469 432.088,503.469 433.45,503.469 434.786,503.469 436.148,503.494 437.484,503.494 438.821,503.494 440.183,503.494 441.519,503.494 442.881,503.494 444.217,503.52 445.579,503.52 446.915,503.52 448.251,503.52 449.613,503.52 450.949,503.52 452.311,503.546 453.648,503.546 455.009,503.546 456.346,503.546 457.682,503.546 459.044,503.546 460.38,503.572 461.742,503.572 463.078,503.572 464.44,503.572 465.776,503.572 467.113,503.572 468.474,503.597 469.811,503.597 " />
<polyline fill="none" vector-effect="none" points="469.811,503.597 471.173,503.597 472.509,503.597 473.871,503.597 475.207,503.597 476.543,503.623 477.905,503.623 479.241,503.623 480.603,503.623 481.939,503.623 483.301,503.623 484.638,503.623 485.974,503.649 487.336,503.649 488.672,503.649 490.034,503.649 491.37,503.649 492.706,503.649 494.068,503.674 495.404,503.674 496.766,503.674 498.103,503.674 499.465,503.674 500.801,503.674 502.137,503.674 503.499,503.7 504.835,503.7 506.197,503.7 507.533,503.7 508.895,503.7 510.231,503.7 511.568,503.726 512.93,503.726 514.266,503.726 515.628,503.726 516.964,503.726 518.326,503.726 519.662,503.726 520.998,503.751 522.36,503.751 523.696,503.751 525.058,503.751 526.395,503.751 527.756,503.751 529.093,503.751 530.429,503.777 531.791,503.777 533.127,503.777 534.489,503.777 535.825,503.777 537.187,503.777 538.523,503.777 539.86,503.803 541.221,503.803 542.558,503.803 543.92,503.803 545.256,503.803 546.592,503.803 547.954,503.803 549.29,503.829 550.652,503.829 551.988,503.829 553.35,503.829 554.686,503.829 556.023,503.829 557.385,503.829 558.721,503.854 560.083,503.854 561.419,503.854 562.781,503.854 564.117,503.854 565.453,503.854 566.815,503.854 568.151,503.88 569.513,503.88 570.85,503.88 572.212,503.88 573.548,503.88 574.884,503.88 576.246,503.88 577.582,503.906 578.944,503.906 580.28,503.906 581.642,503.906 582.978,503.906 584.315,503.906 585.677,503.906 587.013,503.931 588.375,503.931 589.711,503.931 591.073,503.931 592.409,503.931 593.745,503.931 595.107,503.931 596.443,503.931 597.805,503.957 599.142,503.957 600.478,503.957 601.84,503.957 603.176,503.957 604.538,503.957 605.874,503.957 607.236,503.983 608.572,503.983 609.908,503.983 611.27,503.983 612.607,503.983 613.969,503.983 615.305,503.983 616.667,503.983 618.003,504.008 619.339,504.008 620.701,504.008 622.037,504.008 623.399,504.008 624.735,504.008 626.097,504.008 627.434,504.008 628.77,504.034 630.132,504.034 631.468,504.034 632.83,504.034 634.166,504.034 635.528,504.034 636.864,504.034 638.2,504.06 639.562,504.06 640.899,504.06 642.26,504.06 643.597,504.06 644.959,504.06 646.295,504.06 647.631,504.06 648.993,504.085 650.329,504.085 651.691,504.085 653.027,504.085 654.364,504.085 655.725,504.085 657.062,504.085 658.424,504.085 659.76,504.085 661.122,504.111 662.458,504.111 663.794,504.111 665.156,504.111 666.492,504.111 667.854,504.111 669.19,504.111 670.552,504.111 671.889,504.137 673.225,504.137 674.587,504.137 675.923,504.137 677.285,504.137 678.621,504.137 679.983,504.137 681.319,504.137 682.655,504.163 684.017,504.163 685.354,504.163 686.716,504.163 688.052,504.163 689.414,504.163 690.75,504.163 692.086,504.163 693.448,504.163 694.784,504.188 696.146,504.188 697.482,504.188 698.844,504.188 700.181,504.188 701.517,504.188 702.879,504.188 704.215,504.188 705.577,504.214 706.913,504.214 708.249,504.214 709.611,504.214 710.947,504.214 712.309,504.214 713.646,504.214 715.007,504.214 716.344,504.214 717.68,504.24 719.042,504.24 720.378,504.24 721.74,504.24 723.076,504.24 724.438,504.24 725.774,504.24 727.111,504.24 728.472,504.24 729.809,504.265 731.171,504.265 732.507,504.265 733.869,504.265 735.205,504.265 736.541,504.265 737.903,504.265 739.239,504.265 740.601,504.265 741.937,504.291 743.299,504.291 744.636,504.291 745.972,504.291 747.334,504.291 748.67,504.291 750.032,504.291 751.368,504.291 752.73,504.291 754.066,504.317 755.403,504.317 756.764,504.317 758.101,504.317 759.463,504.317 760.799,504.317 762.135,504.317 763.497,504.317 764.833,504.317 766.195,504.317 767.531,504.342 768.893,504.342 770.229,504.342 771.566,504.342 772.928,504.342 774.264,504.342 775.626,504.342 776.962,504.342 778.324,504.342 779.66,504.368 780.996,504.368 782.358,504.368 783.694,504.368 785.056,504.368 786.393,504.368 787.755,504.368 789.091,504.368 790.427,504.368 791.789,504.368 793.125,504.394 794.487,504.394 795.823,504.394 797.185,504.394 798.521,504.394 799.858,504.394 " />
</g>
</g>
</svg>
